<svg width="36" height="36" viewBox="0 0 36 36" fill="none" xmlns="http://www.w3.org/2000/svg">
<rect width="36" height="36" rx="6" fill="#8652E5"/>
<path d="M9 11.8586C9 11.3199 9.19145 10.8754 9.57432 10.5253C9.9572 10.1751 10.455 10 11.0676 10C11.6692 10 12.156 10.1724 12.528 10.5172C12.9109 10.8727 13.1023 11.336 13.1023 11.9071C13.1023 12.4242 12.9164 12.8552 12.5444 13.2C12.1615 13.5556 11.6583 13.7333 11.0347 13.7333H11.0183C10.4167 13.7333 9.92986 13.5556 9.55792 13.2C9.18597 12.8444 9 12.3973 9 11.8586ZM9.21332 26V15.204H12.8562V26H9.21332ZM14.8745 26H18.5174V19.9717C18.5174 19.5946 18.5611 19.3037 18.6486 19.099C18.8018 18.7327 19.0343 18.4229 19.346 18.1697C19.6578 17.9165 20.0489 17.7899 20.5193 17.7899C21.7445 17.7899 22.3571 18.6034 22.3571 20.2303V26H26V19.8101C26 18.2155 25.6171 17.0061 24.8514 16.1818C24.0856 15.3576 23.0737 14.9455 21.8156 14.9455C20.4044 14.9455 19.305 15.5434 18.5174 16.7394V16.7717H18.501L18.5174 16.7394V15.204H14.8745C14.8964 15.5488 14.9073 16.6209 14.9073 18.4202C14.9073 20.2195 14.8964 22.7461 14.8745 26Z" fill="white"/>
</svg>
