<svg width="36" height="36" viewBox="0 0 36 36" fill="none" xmlns="http://www.w3.org/2000/svg">
<rect width="36" height="36" rx="6" fill="#8652E5"/>
<path d="M9.76841 24.9693H12.7992V17.6089L8.46948 14.3618V23.6706C8.46972 24.3878 9.05125 24.9693 9.76841 24.9693Z" fill="white"/>
<path d="M23.1901 24.9693H26.2211C26.9385 24.9693 27.52 24.3878 27.52 23.6704V14.3615L23.1901 17.6089V24.9693Z" fill="white"/>
<path d="M23.1901 11.981V17.6089L27.5198 14.3618V12.6305C27.5198 11.5546 26.6475 10.6823 25.5714 10.6823C25.1498 10.6823 24.7398 10.8191 24.4026 11.0721L23.1901 11.981Z" fill="white"/>
<path d="M12.7994 17.6089V11.981L17.9946 15.8773L23.1898 11.9807V17.6089L17.9946 21.5052L12.7994 17.6089Z" fill="white"/>
<path d="M8.46973 12.6302V14.3616L12.7994 17.6089V11.981L11.587 11.0718C10.7262 10.4262 9.50511 10.6006 8.8595 11.4614C8.60632 11.7986 8.46973 12.2089 8.46973 12.6302Z" fill="white"/>
</svg>
