<svg width="36" height="36" viewBox="0 0 36 36" fill="none" xmlns="http://www.w3.org/2000/svg">
<rect width="36" height="36" rx="6" fill="#8652E5"/>
<g clip-path="url(#clip0)">
<path fill-rule="evenodd" clip-rule="evenodd" d="M11.885 10.511C12.06 10.3363 12.2701 10.2008 12.5014 10.1134C12.7327 10.026 12.98 9.9888 13.2268 10.0042C13.4735 10.0196 13.7142 10.0873 13.9329 10.2028C14.1515 10.3183 14.3431 10.4789 14.495 10.674L16.29 12.98C16.619 13.403 16.735 13.954 16.605 14.474L16.058 16.664C16.0297 16.7774 16.0313 16.8962 16.0624 17.0089C16.0936 17.1216 16.1534 17.2243 16.236 17.307L18.693 19.764C18.7759 19.8467 18.8787 19.9066 18.9916 19.9378C19.1044 19.969 19.2234 19.9705 19.337 19.942L21.526 19.395C21.7826 19.3308 22.0505 19.3258 22.3093 19.3804C22.5681 19.435 22.8111 19.5477 23.02 19.71L25.326 21.504C26.155 22.149 26.231 23.374 25.489 24.115L24.455 25.149C23.715 25.889 22.609 26.214 21.578 25.851C18.9392 24.9225 16.5433 23.4118 14.568 21.431C12.5873 19.456 11.0766 17.0605 10.148 14.422C9.78601 13.392 10.111 12.285 10.851 11.545L11.885 10.511Z" fill="white"/>
</g>
<defs>
<clipPath id="clip0">
<rect width="16" height="16" fill="white" transform="translate(10 10)"/>
</clipPath>
</defs>
</svg>
