<svg width="209" height="247" viewBox="0 0 209 247" fill="none" xmlns="http://www.w3.org/2000/svg">
<g clip-path="url(#clip0)">
<path d="M192.058 65.0008L108.02 16.4812L19.142 170.422L103.18 218.942L192.058 65.0008Z" fill="#633AAD"/>
<path d="M21.4111 166.492L24.1537 167.63C24.1537 167.63 104.776 40.364 111.441 40.257C117.168 40.1525 172.031 66.489 187.028 73.7137L192.058 65.0008L108.02 16.4812L21.4111 166.492Z" fill="#4F2E8A"/>
<path d="M113.254 205.676L25.557 155.044L4.36502 191.749L92.0621 242.381L113.254 205.676Z" fill="#0F0E0D"/>
<path d="M168.391 80.3052L110.185 46.7L105.625 54.5972L163.831 88.2025L168.391 80.3052Z" fill="#0F0E0D"/>
<path d="M156.831 100.326L98.6253 66.7212L49.4129 151.96L107.619 185.565L156.831 100.326Z" stroke="#15063D" stroke-miterlimit="10"/>
<path d="M125.008 16.5012L108.341 15.925L196.001 66.5356L187.168 52.3895C182.655 45.1862 176.46 39.1874 169.143 34.9628L149.113 23.3983C141.759 19.1523 133.466 16.7871 125.008 16.5012Z" fill="#4F2E8A"/>
<path d="M104.796 8.83615L99.7872 17.512C99.3377 18.2906 99.602 19.2836 100.378 19.7317L196.686 75.335C197.462 75.7831 198.454 75.5155 198.904 74.7369L203.913 66.0611C204.362 65.2825 204.098 64.2895 203.322 63.8414L107.014 8.23804C106.238 7.78997 105.246 8.05754 104.796 8.83615Z" fill="#633AAD"/>
<path d="M130.092 132.643L125.214 129.826L119.798 139.207L124.677 142.023L130.092 132.643Z" fill="#0F0E0D"/>
</g>
<defs>
<clipPath id="clip0">
<rect width="114.45" height="218.17" fill="white" transform="translate(109.57 0.568115) rotate(30)"/>
</clipPath>
</defs>
</svg>
