<svg width="264" height="273" viewBox="0 0 264 273" fill="none" xmlns="http://www.w3.org/2000/svg">
<g id="post-man5">
<g id="hand">
<g id="Group">
<path id="Vector" d="M202.565 70.1004C202.426 70.2745 202.252 70.4835 202.113 70.6576C201.973 70.8318 201.765 71.0407 201.521 71.0407C201.312 71.0407 201.173 70.9014 201.034 70.7621C200.303 70.0656 192.055 61.1847 191.672 61.8115C193.099 59.513 195.083 58.0154 197.066 56.2044C197.38 55.9258 197.728 55.6123 198.18 55.5775C198.806 55.5078 199.328 55.9954 199.746 56.4482C201.138 57.9109 206.393 63.1001 206.185 65.0505C206.115 65.6774 205.697 66.2346 205.28 66.7222C204.375 67.8366 203.47 68.9511 202.565 70.1004Z" fill="#8652E5"/>
</g>
<g id="Group 19">
<g id="Group 18">
<g id="Group_2">
<path id="Vector_2" d="M218.783 54.6023C217.321 55.6471 216.486 57.5626 215.372 58.9557C214.085 60.5229 212.623 61.9508 210.813 62.8912C209.874 63.3788 208.829 63.727 207.89 64.2146C206.602 64.8763 205.349 65.8863 203.888 65.8863C202.739 65.8863 201.695 65.2943 200.721 64.7022C199.816 64.145 198.876 63.5877 198.18 62.7867C197.449 61.9857 196.962 60.9409 197.136 59.8612C197.31 58.6771 198.18 57.8064 198.772 56.8313C199.433 55.7516 199.433 54.6023 199.746 53.3486C200.442 50.4579 201.451 47.6717 202.774 44.99C203.157 44.189 203.609 43.3532 204.34 42.8308C204.862 42.4825 205.454 42.2735 206.045 42.0994C211.962 40.2884 217.983 38.8256 224.073 37.7112C224.491 37.6415 224.943 37.5719 225.326 37.746C226.022 38.0943 226.091 39.1391 225.674 39.766C225.256 40.3929 224.421 40.8108 223.725 41.1242C224.421 41.4029 225.187 41.7163 225.465 42.4128C225.778 43.1094 225.465 43.9801 224.943 44.5025C224.421 45.0597 223.69 45.3731 222.959 45.6518C223.795 46.1742 224.212 47.2886 223.934 48.229C223.621 49.1693 222.646 49.831 221.672 49.7614C222.194 50.6669 221.846 51.851 221.184 52.652C220.523 53.453 219.618 53.9754 218.783 54.6023Z" fill="#FF5F5C"/>
</g>
<g id="Group_3">
<path id="Vector_3" d="M152.937 80.5836C156.73 84.3797 159.027 86.3997 163.517 82.0463C166.057 79.6084 168.563 77.1357 171.104 74.6978C174.723 71.1803 178.238 67.4886 182.206 64.3193C185.199 61.9511 188.992 57.7718 193.238 58.6425C194.943 58.9908 196.266 60.349 197.414 61.6725C199.433 63.9014 203.052 66.8965 203.226 70.1703C203.261 70.5534 203.192 70.9365 203.157 71.2847C202.635 74.3844 200.233 77.484 198.11 79.7477C196.823 81.106 195.431 82.1856 194.213 83.6832C192.751 85.4942 191.219 87.2356 189.549 88.8724C184.851 93.3651 180.152 97.8927 174.723 101.48C169.294 105.032 163.064 107.644 156.591 107.818C150.64 107.993 146.185 103.395 141.8 99.9475C136.719 95.9772 131.777 91.7979 127.218 87.2356C123.668 83.6832 120.292 79.7826 118.378 75.1506C115.872 69.0906 116.046 56.6225 125.234 56.8663C131.359 57.0405 136.928 62.8218 140.826 66.9662C145.002 71.3892 148.656 76.265 152.937 80.5836Z" fill="#633AAD"/>
</g>
<g id="Group_4">
<g id="Group_5">
<path id="Vector_4" d="M206.95 52.6173C207.124 53.3138 207.298 53.9755 207.472 54.6373C211.579 54.7069 215.686 54.1845 219.723 53.5924C223.621 53.0352 227.379 52.8611 231.312 52.5128C236.532 52.06 241.718 51.3287 246.869 50.3883C246.66 47.0449 245.929 43.7015 245.651 40.3233C245.163 36.0744 244.815 31.8255 244.258 27.5766C244.224 27.4024 244.224 27.2283 244.084 27.1238C243.945 26.9845 243.702 26.9845 243.493 27.0193C236.567 27.7855 229.641 28.5517 222.716 29.3179C221.567 29.4572 204.305 30.8852 204.34 31.3379C205.036 38.3033 205.314 45.7912 206.95 52.6173Z" fill="#8652E5"/>
</g>
<g id="Group_6">
<path id="Vector_5" d="M204.305 31.3729C205.697 32.4874 207.089 33.6367 208.481 34.7512C209.178 35.3084 209.874 35.8656 210.535 36.4229C211.196 36.9453 211.927 37.4329 212.623 37.8856C215.477 39.7663 218.435 41.3683 221.393 43.0052C222.89 43.8411 224.386 44.6769 225.952 45.3386C226.266 45.4779 226.544 45.5476 226.857 45.4083C227.205 45.3038 227.484 44.9904 227.727 44.7466C228.388 44.1893 229.015 43.6321 229.676 43.04C232.182 40.7763 234.618 38.4429 236.915 35.9701C238.238 34.577 239.49 33.1491 240.709 31.6864C241.3 30.9898 241.857 30.2585 242.449 29.5619C243.006 28.8654 243.597 28.1689 244.119 27.4375C244.328 27.1589 243.841 26.8802 243.632 27.1589C242.727 28.4475 241.683 29.6316 240.674 30.8505C239.63 32.1391 238.551 33.3929 237.402 34.6119C235.21 37.0149 232.878 39.3484 230.477 41.5425C229.885 42.0997 229.259 42.6569 228.667 43.1793C228.075 43.7018 227.449 44.3286 226.788 44.7814C226.405 45.06 225.952 44.7466 225.604 44.5724C225.221 44.3983 224.839 44.1893 224.456 44.0152C223.725 43.6321 222.994 43.249 222.263 42.8659C219.409 41.2987 216.521 39.7315 213.771 37.9901C213.006 37.5025 212.205 36.9801 211.44 36.4577C210.639 35.9005 209.908 35.2388 209.178 34.6467C207.646 33.4277 206.15 32.2088 204.618 30.9898C204.444 30.7461 204.027 31.1292 204.305 31.3729Z" fill="#090C1F"/>
</g>
</g>
</g>
<g id="Group_7">
<path id="Vector_6" d="M204.236 56.8661C202.147 58.2244 199.92 57.0751 199.677 54.6372C199.433 52.1296 200.129 49.1693 201.243 46.9752C201.904 45.617 202.983 44.398 204.375 43.806C205.175 43.4577 206.045 43.3532 206.915 43.2487C210.361 42.8308 213.806 42.4129 217.252 41.995C217.461 41.9601 217.669 41.9601 217.843 42.0646C217.983 42.1691 218.052 42.3432 218.122 42.5174C218.47 43.9801 217.217 45.3732 215.825 45.9304C214.433 46.4876 212.901 46.4528 211.44 46.7314C210.987 46.8359 210.535 46.9404 210.256 47.2887C209.978 47.6021 209.908 48.0549 209.839 48.4728C209.212 51.8858 207.124 55.0203 204.236 56.8661Z" fill="#FF8C60"/>
</g>
</g>
</g>
<g id="right-wheel">
<path id="Vector_7" d="M161 219.5C161 247.375 183.401 270 211 270C238.599 270 261 247.375 261 219.5C261 191.625 238.599 169 211 169C183.401 169 161 191.589 161 219.5ZM166.094 219.5C166.094 194.444 186.192 174.145 211 174.145C235.808 174.145 255.906 194.444 255.906 219.5C255.906 244.556 235.808 264.855 211 264.855C186.192 264.855 166.094 244.521 166.094 219.5Z" fill="white"/>
<g id="Group_8">
<g id="Group_9">
<path id="Vector_8" d="M214.348 218.984V169.216" stroke="white" stroke-miterlimit="10"/>
<path id="Vector_9" d="M207.179 269.657V218.984" stroke="white" stroke-miterlimit="10"/>
</g>
<g id="Group_10">
<path id="Vector_10" d="M207.179 218.984V169.216" stroke="white" stroke-miterlimit="10"/>
<path id="Vector_11" d="M214.348 269.657V218.984" stroke="white" stroke-miterlimit="10"/>
</g>
<g id="Group_11">
<path id="Vector_12" d="M207.875 217.242L232.759 174.126" stroke="white" stroke-miterlimit="10"/>
<path id="Vector_13" d="M188.768 264.712L214.07 220.83" stroke="white" stroke-miterlimit="10"/>
</g>
<g id="Group_12">
<path id="Vector_14" d="M209.372 216.094L252.422 191.227" stroke="white" stroke-miterlimit="10"/>
<path id="Vector_15" d="M169.105 247.647L212.921 222.292" stroke="white" stroke-miterlimit="10"/>
</g>
<g id="Group_13">
<path id="Vector_16" d="M211.216 215.85H260.949" stroke="white" stroke-miterlimit="10"/>
<path id="Vector_17" d="M160.578 222.989H211.216" stroke="white" stroke-miterlimit="10"/>
</g>
<g id="Group_14">
<path id="Vector_18" d="M212.921 216.546L256.007 241.448" stroke="white" stroke-miterlimit="10"/>
<path id="Vector_19" d="M165.52 197.426L209.372 222.745" stroke="white" stroke-miterlimit="10"/>
</g>
<g id="Group_15">
<path id="Vector_20" d="M214.07 218.009L238.954 261.125" stroke="white" stroke-miterlimit="10"/>
<path id="Vector_21" d="M182.574 177.714L207.875 221.596" stroke="white" stroke-miterlimit="10"/>
</g>
<g id="Group_16">
<path id="Vector_22" d="M214.07 220.83L238.954 177.714" stroke="white" stroke-miterlimit="10"/>
<path id="Vector_23" d="M182.574 261.125L207.875 217.243" stroke="white" stroke-miterlimit="10"/>
</g>
<g id="Group_17">
<path id="Vector_24" d="M212.921 222.292L256.007 197.426" stroke="white" stroke-miterlimit="10"/>
<path id="Vector_25" d="M165.52 241.447L209.372 216.093" stroke="white" stroke-miterlimit="10"/>
</g>
<g id="Group_18">
<path id="Vector_26" d="M211.216 222.989H260.949" stroke="white" stroke-miterlimit="10"/>
<path id="Vector_27" d="M160.578 215.85H211.216" stroke="white" stroke-miterlimit="10"/>
</g>
<g id="Group_19">
<path id="Vector_28" d="M209.372 222.745L252.422 247.647" stroke="white" stroke-miterlimit="10"/>
<path id="Vector_29" d="M169.105 191.227L212.921 216.546" stroke="white" stroke-miterlimit="10"/>
</g>
<g id="Group_20">
<path id="Vector_30" d="M207.875 221.596L232.759 264.712" stroke="white" stroke-miterlimit="10"/>
<path id="Vector_31" d="M188.768 174.126L214.07 218.009" stroke="white" stroke-miterlimit="10"/>
</g>
</g>
<path id="Vector_32" d="M157.551 219.437C157.551 248.831 181.356 272.687 210.764 272.687C240.172 272.687 263.976 248.831 263.976 219.437C263.976 190.043 240.172 166.186 210.764 166.186C181.356 166.186 157.551 190.008 157.551 219.437ZM162.98 219.437C162.98 193.038 184.383 171.619 210.764 171.619C237.144 171.619 258.547 193.003 258.547 219.437C258.547 245.836 237.144 267.254 210.764 267.254C184.383 267.254 162.98 245.836 162.98 219.437Z" fill="#0F0E0D"/>
</g>
<g id="left-wheel">
<path id="Vector_33" d="M3 218.907C3 246.456 25.3432 268.815 52.8719 268.815C80.4006 268.815 102.744 246.456 102.744 218.907C102.744 191.359 80.4006 169 52.8719 169C25.3432 169 3 191.324 3 218.907ZM8.08116 218.907C8.08116 194.145 28.1274 174.085 52.8719 174.085C77.6164 174.085 97.6626 194.145 97.6626 218.907C97.6626 243.669 77.6164 263.73 52.8719 263.73C28.1274 263.73 8.08116 243.635 8.08116 218.907Z" fill="white"/>
<g id="Group 20">
<g id="Group_21">
<g id="Group_22">
<path id="Vector_34" d="M56.7976 218.984V169.216" stroke="white" stroke-miterlimit="10"/>
<path id="Vector_35" d="M49.6283 269.657V218.984" stroke="white" stroke-miterlimit="10"/>
</g>
<g id="Group_23">
<path id="Vector_36" d="M49.6283 218.984V169.216" stroke="white" stroke-miterlimit="10"/>
<path id="Vector_37" d="M56.7976 269.657V218.984" stroke="white" stroke-miterlimit="10"/>
</g>
<g id="Group_24">
<path id="Vector_38" d="M50.3591 217.242L75.2081 174.126" stroke="white" stroke-miterlimit="10"/>
<path id="Vector_39" d="M31.2178 264.712L56.554 220.83" stroke="white" stroke-miterlimit="10"/>
</g>
<g id="Group_25">
<path id="Vector_40" d="M51.8209 216.094L94.9063 191.227" stroke="white" stroke-miterlimit="10"/>
<path id="Vector_41" d="M11.5544 247.647L55.4055 222.292" stroke="white" stroke-miterlimit="10"/>
</g>
<g id="Group_26">
<path id="Vector_42" d="M53.6654 215.85H103.398" stroke="white" stroke-miterlimit="10"/>
<path id="Vector_43" d="M3.02783 222.989H53.6654" stroke="white" stroke-miterlimit="10"/>
</g>
<g id="Group_27">
<path id="Vector_44" d="M55.4055 216.546L98.4561 241.448" stroke="white" stroke-miterlimit="10"/>
<path id="Vector_45" d="M7.96979 197.426L51.8209 222.745" stroke="white" stroke-miterlimit="10"/>
</g>
<g id="Group_28">
<path id="Vector_46" d="M56.554 218.009L81.4029 261.125" stroke="white" stroke-miterlimit="10"/>
<path id="Vector_47" d="M25.0229 177.714L50.3591 221.596" stroke="white" stroke-miterlimit="10"/>
</g>
<g id="Group_29">
<path id="Vector_48" d="M56.554 220.83L81.4029 177.714" stroke="white" stroke-miterlimit="10"/>
<path id="Vector_49" d="M25.0229 261.125L50.3591 217.243" stroke="white" stroke-miterlimit="10"/>
</g>
<g id="Group_30">
<path id="Vector_50" d="M55.4055 222.292L98.4561 197.426" stroke="white" stroke-miterlimit="10"/>
<path id="Vector_51" d="M7.96979 241.447L51.8209 216.093" stroke="white" stroke-miterlimit="10"/>
</g>
<g id="Group_31">
<path id="Vector_52" d="M53.6654 222.989H103.398" stroke="white" stroke-miterlimit="10"/>
<path id="Vector_53" d="M3.02783 215.85H53.6654" stroke="white" stroke-miterlimit="10"/>
</g>
<g id="Group_32">
<path id="Vector_54" d="M51.8209 222.745L94.9063 247.647" stroke="white" stroke-miterlimit="10"/>
<path id="Vector_55" d="M11.5544 191.227L55.4055 216.546" stroke="white" stroke-miterlimit="10"/>
</g>
<g id="Group_33">
<path id="Vector_56" d="M50.3591 221.596L75.2081 264.712" stroke="white" stroke-miterlimit="10"/>
<path id="Vector_57" d="M31.2178 174.126L56.554 218.009" stroke="white" stroke-miterlimit="10"/>
</g>
</g>
<g id="Group 17">
<path id="Vector_58" d="M0 219.437C0 248.831 23.8049 272.687 53.2129 272.687C82.621 272.687 106.426 248.831 106.426 219.437C106.426 190.043 82.621 166.186 53.2129 166.186C23.8049 166.186 0 190.008 0 219.437ZM5.42918 219.437C5.42918 193.038 26.8327 171.619 53.2129 171.619C79.5932 171.619 100.997 193.003 100.997 219.437C100.997 245.836 79.5932 267.254 53.2129 267.254C26.8327 267.254 5.42918 245.836 5.42918 219.437Z" fill="#0F0E0D"/>
</g>
</g>
</g>
<g id="manCycle">
<g id="Group_34">
<path id="Vector_59" d="M117.597 222.432L115.44 197.809L120.347 197.182L124.558 221.561C124.906 223.546 123.514 225.392 121.53 225.636C119.581 225.88 117.771 224.452 117.597 222.432Z" fill="#DAE2D5"/>
<g id="Group_35">
<path id="Vector_60" d="M111.592 187.831L107.284 192.989L124.188 207.127L128.495 201.969L111.592 187.831Z" fill="#293241"/>
<path id="Vector_61" d="M116.414 199.237C115.44 198.436 115.301 196.973 116.136 196.033C116.936 195.057 118.398 194.918 119.338 195.754C120.312 196.555 120.451 198.018 119.616 198.958C118.85 199.933 117.389 200.038 116.414 199.237Z" fill="#DAE2D5"/>
</g>
</g>
<g id="Group_36">
<path id="Vector_62" d="M132.006 201.083C129.709 200.073 127.377 199.028 125.289 197.53C124.732 197.112 120.242 193.212 120.938 192.341C123.061 189.659 125.324 187.082 127.342 184.331C129.326 181.58 131.136 178.654 133.433 176.112C133.572 175.938 133.746 175.763 133.989 175.729C134.198 175.694 134.407 175.833 134.581 175.938C137.957 178.097 141.228 180.361 144.465 182.659C143.908 184.226 142.62 185.689 141.576 186.943C140.428 188.301 139.488 189.764 138.479 191.227C137.957 192.132 132.284 201.187 132.006 201.083Z" fill="#DAE2D5"/>
</g>
<g id="Group_37">
<g id="Group_38">
<path id="Vector_63" d="M126.89 213.829C125.706 212.541 124.384 211.322 123.409 209.859C122.365 208.327 121.704 206.551 121.669 204.705C121.043 204.983 120.451 205.297 119.825 205.575C119.512 205.715 119.164 205.889 118.816 205.889C117.597 205.889 115.509 203.59 114.744 202.72C113.665 201.501 112.656 200.107 112.029 198.575C111.959 198.436 111.925 198.262 111.959 198.122C111.994 198.018 112.099 197.948 112.168 197.879C112.899 197.252 113.665 196.66 114.465 196.137C116.414 197.809 118.711 199.063 120.764 200.595C125.498 204.147 129.5 208.466 133.607 212.68C135.73 214.839 137.852 216.964 140.115 218.984C141.089 219.854 142.238 220.586 143.142 221.526C144.221 222.606 145.126 223.755 146.379 224.661C145.892 225.671 145.3 226.646 144.639 227.551C140.532 225.601 137.33 222.641 133.711 219.924C131.588 218.322 129.221 216.616 127.481 214.596C127.307 214.317 127.099 214.073 126.89 213.829Z" fill="#D08DF9"/>
</g>
<g id="Group_39">
<path id="Vector_64" d="M146.379 218.531C146.901 219.367 147.388 220.238 147.632 221.213C147.91 222.362 147.806 223.686 147.005 224.591C146.762 224.905 146.379 225.149 145.996 225.114C145.787 225.114 145.613 225.044 145.439 224.94C143.108 223.93 141.124 222.293 139.14 220.656C136.878 218.775 134.72 216.825 132.493 214.944C130.022 212.785 127.447 210.661 125.602 207.909C124.836 206.795 124.175 205.576 123.305 204.566C120.904 201.814 117.11 200.63 114.674 197.879C114.396 197.565 114.152 197.217 114.082 196.834C114.013 196.381 114.256 195.929 114.465 195.546C116.066 192.899 118.85 191.018 121.878 190.496C124.071 193.665 127.655 198.68 132.18 197.078C133.293 196.695 134.233 195.929 135.312 195.406C136.391 194.884 137.748 194.71 138.653 195.441C137.992 196.521 137.33 197.635 137.087 198.889C136.495 201.954 138.166 205.158 139.627 207.735C141.611 211.253 143.873 214.596 146.031 218.009C146.17 218.183 146.275 218.357 146.379 218.531Z" fill="#0F0E0D"/>
</g>
<g id="Group_40">
<g id="Group_41">
<path id="Vector_65" d="M140.149 208.431C139.001 209.372 137.609 210.033 136.147 210.347C135.938 210.382 136.008 210.73 136.252 210.695C137.783 210.347 139.175 209.685 140.393 208.71C140.567 208.536 140.323 208.292 140.149 208.431Z" fill="white"/>
</g>
</g>
<g id="Group_42">
<g id="Group_43">
<path id="Vector_66" d="M138.514 205.297C137.122 206.168 135.59 206.725 133.989 206.934C133.781 206.969 133.85 207.317 134.094 207.282C135.729 207.038 137.296 206.481 138.688 205.61C138.862 205.471 138.688 205.192 138.514 205.297Z" fill="white"/>
</g>
</g>
<g id="Group_44">
<g id="Group_45">
<path id="Vector_67" d="M137.435 202.406C135.973 202.72 134.477 202.998 132.98 203.172C132.771 203.207 132.771 203.555 132.98 203.521C134.511 203.312 136.043 203.068 137.539 202.72C137.748 202.685 137.644 202.337 137.435 202.406Z" fill="white"/>
</g>
</g>
</g>
<g id="Group_46">
<path id="Vector_68" d="M128.038 177.052C127.238 178.515 126.402 179.943 125.567 181.406C125.324 181.824 131.379 185.863 131.832 186.142C134.442 187.779 137.33 189.207 139.767 191.088C144.917 186.63 148.85 180.953 152.748 175.346C159.569 165.524 168.513 154.867 168.687 142.295C168.722 139.369 168.339 136.374 167.017 133.762C164.094 128.085 157.516 125.543 151.425 123.697C135.556 118.856 119.233 115.582 102.911 112.831C95.9503 111.647 88.955 110.498 81.9946 109.313C80.4981 118.334 80.4632 129.478 89.4771 134.702C91.9829 136.165 94.8019 136.931 97.6209 137.628C112.133 141.32 127.447 142.434 141.681 146.718C141.159 146.578 137.922 155.668 137.609 156.4C136.982 158.037 136.321 159.673 135.625 161.241C135.173 162.286 134.964 163.365 134.477 164.375C133.572 166.221 132.319 167.893 131.449 169.773C130.3 172.211 129.326 174.684 128.038 177.052Z" fill="#D08DF9"/>
</g>
<g id="Group_47">
<path id="Vector_69" d="M168.687 142.26C168.722 139.334 168.339 136.339 167.017 133.727C164.094 128.05 157.516 125.508 151.425 123.662C146.657 122.199 141.855 120.911 137.017 119.692C142.516 122.722 148.05 125.787 153.548 128.817C156.333 130.349 159.256 132.021 160.752 134.842C162.527 138.15 161.866 142.26 160.822 145.882C158.073 155.25 152.992 163.713 147.388 171.619C143.525 177.052 138.792 182.346 135.103 188.058C136.704 188.998 138.305 189.938 139.767 191.053C144.917 186.595 148.85 180.918 152.748 175.311C159.569 165.49 168.513 154.832 168.687 142.26Z" fill="#D7BAFB"/>
</g>
<g id="Group_48">
<path id="Vector_70" d="M141.507 193.177C141.194 193.56 140.88 193.978 140.428 194.187C139.488 194.64 138.375 194.117 137.47 193.595C132.562 190.739 127.168 187.744 123.375 183.425C123.201 183.251 123.027 183.042 123.027 182.798C123.027 182.555 123.131 182.346 123.27 182.171C124.454 180.256 125.811 178.445 127.342 176.808C133.433 180.43 139.314 184.366 145.022 188.545C144.883 188.405 141.785 192.829 141.507 193.177Z" fill="#8652E5"/>
</g>
<g id="Group_49">
<path id="Vector_71" d="M50.5679 226.193L50.3591 226.158L44.1991 217.904L53.0041 210.834H124.175V244.861L50.5679 226.193ZM53.4217 211.984L45.7652 218.113L51.0204 225.148L123.061 243.398V211.984H53.4217Z" fill="#0F0E0D"/>
</g>
<path id="Vector_72" d="M53.213 229.397C58.7101 229.397 63.1665 224.938 63.1665 219.437C63.1665 213.936 58.7101 209.476 53.213 209.476C47.7158 209.476 43.2595 213.936 43.2595 219.437C43.2595 224.938 47.7158 229.397 53.213 229.397Z" fill="#0F0E0D"/>
<path id="Vector_73" d="M106.252 225.044H114.883L108.758 218.949L113.108 214.631L119.198 220.725V212.088H125.324V220.725L131.414 214.631L135.729 218.949L129.639 225.044H138.235V231.174H129.639L135.729 237.268L131.414 241.587L125.324 235.492V244.129H119.198V235.492L113.108 241.587L108.758 237.268L114.883 231.174H106.252V225.044Z" fill="#293241"/>
<path id="Vector_74" d="M92.3091 124.687L88.6858 125.687L108.232 196.627L111.855 195.627L92.3091 124.687Z" fill="#293241"/>
<path id="Vector_75" d="M104.059 227.76C104.059 237.791 112.203 245.94 122.226 245.94C132.249 245.94 140.393 237.791 140.393 227.76C140.393 217.73 132.249 209.581 122.226 209.581C112.203 209.581 104.059 217.73 104.059 227.76ZM107.54 227.76C107.54 219.611 114.117 213.028 122.261 213.028C130.405 213.028 136.982 219.611 136.982 227.76C136.982 235.91 130.405 242.492 122.261 242.492C114.117 242.492 107.54 235.91 107.54 227.76Z" fill="#293241"/>
<path id="Vector_76" d="M190.717 161.171L181.634 128.503L202.689 124.672C205.961 124.672 208.571 127.493 208.258 130.802C207.979 133.692 205.404 135.538 202.515 135.851C199.662 136.165 191.309 138.429 191.309 138.429C190.404 138.638 189.778 139.439 189.778 140.379C189.778 141.668 190.961 142.608 192.214 142.329C192.214 142.329 200.01 140.24 202.689 139.926C208.119 139.299 212.539 135.399 212.33 129.896C212.121 124.672 207.666 120.597 202.446 120.597L178.328 124.428C177.875 124.428 177.423 124.637 177.144 125.02C176.866 125.403 176.762 125.856 176.901 126.309L186.715 161.658C188.003 161.763 189.36 161.554 190.717 161.171Z" fill="#0F0E0D"/>
<path id="Vector_77" d="M51.4032 221.143L52.4821 221.247L53.9786 222.118L54.3614 221.456L115.927 228.004L116.171 228.84L121.286 228.561V228.422L121.321 228.457L186.263 163.469L187.759 168.833L192.98 167.405L184.209 135.608L178.989 137.035L180.764 143.444L100.475 152.185L96.1243 135.573L90.904 137.001L95.4979 153.996L52.3429 217.382L51.8208 217.312L51.6816 218.461L50.7072 220.168L51.438 220.586L51.4032 221.143ZM101.554 156.26L181.843 147.518L184.975 158.907L120.347 223.651L101.554 156.26ZM56.4148 217.869L96.89 159.151L114.848 224.068L56.4148 217.869Z" fill="#8652E5"/>
<g id="Group_50">
<path id="Vector_78" d="M100.196 125.682C102.667 125.09 105.417 124.707 107.957 124.846C109.21 124.916 113.038 126.239 112.307 123.627C111.542 120.841 108.027 120.667 105.73 120.737C95.4979 121.085 85.2659 121.399 75.034 121.747C73.8855 121.782 72.4587 122.06 72.1802 123.175C72.0758 123.593 72.1802 124.045 72.3194 124.428C73.4679 127.667 76.8089 129.827 80.2196 130.349C83.6302 130.906 87.1105 130.105 90.3819 128.991C93.6533 127.911 96.8204 126.483 100.196 125.682Z" fill="#0F0E0D"/>
</g>
<path id="Vector_79" d="M210.764 223.86C213.205 223.86 215.183 221.879 215.183 219.437C215.183 216.994 213.205 215.014 210.764 215.014C208.323 215.014 206.344 216.994 206.344 219.437C206.344 221.879 208.323 223.86 210.764 223.86Z" fill="white"/>
<path id="Vector_80" d="M53.2129 223.86C55.654 223.86 57.6329 221.879 57.6329 219.437C57.6329 216.994 55.654 215.014 53.2129 215.014C50.7719 215.014 48.793 216.994 48.793 219.437C48.793 221.879 50.7719 223.86 53.2129 223.86Z" fill="#252422"/>
<path id="Vector_81" d="M126.054 233.089L128.212 257.712L123.305 258.339L119.094 233.96C118.746 231.975 120.138 230.129 122.122 229.885C124.106 229.641 125.88 231.104 126.054 233.089Z" fill="#DAE2D5"/>
<g id="Group_51">
<path id="Vector_82" d="M136.309 253.348L114.445 256.036L115.263 262.707L137.128 260.02L136.309 253.348Z" fill="#293241"/>
<path id="Vector_83" d="M125.498 255.796C126.751 255.657 127.899 256.527 128.038 257.781C128.177 259.035 127.307 260.184 126.055 260.323C124.802 260.463 123.653 259.592 123.514 258.338C123.34 257.084 124.245 255.935 125.498 255.796Z" fill="#DAE2D5"/>
</g>
<path id="Vector_84" d="M192.457 167.509L199.592 195.092L203.177 208.884L203.385 209.755L203.594 210.521C203.768 211.008 203.942 211.496 204.186 211.984C204.638 212.924 205.23 213.829 205.926 214.63C206.622 215.431 207.423 216.163 208.293 216.755C208.745 217.068 209.197 217.312 209.685 217.556C209.928 217.66 210.172 217.765 210.416 217.904L210.798 218.043L210.972 218.113L211.077 218.148L211.112 218.183H211.146C210.972 218.74 211.564 216.964 210.764 219.437C209.928 221.909 210.52 220.133 210.346 220.655H210.311L210.242 220.621L210.137 220.586L209.893 220.516L209.441 220.342C209.128 220.203 208.849 220.098 208.536 219.959C207.945 219.68 207.388 219.367 206.831 219.019C205.717 218.322 204.708 217.451 203.838 216.511C202.968 215.536 202.202 214.456 201.576 213.307C201.262 212.715 201.019 212.123 200.775 211.496L200.462 210.556L200.218 209.685L196.216 196.033L188.246 168.693L192.457 167.509Z" fill="#0F0E0D"/>
<g id="Group_52">
<g id="Group_53">
<path id="Vector_85" d="M118.19 244.582C115.788 245.313 113.318 246.045 110.812 246.288C110.116 246.358 104.165 246.323 104.13 245.209C103.99 241.796 104.025 238.383 103.747 234.97C103.468 231.557 102.946 228.178 103.016 224.765C103.016 224.521 103.051 224.278 103.19 224.104C103.329 223.929 103.573 223.895 103.782 223.86C107.749 223.302 111.682 222.85 115.684 222.501C116.276 224.069 116.276 225.984 116.276 227.621C116.276 229.397 116.519 231.139 116.728 232.88C116.867 233.925 118.468 244.477 118.19 244.582Z" fill="white"/>
</g>
<g id="Group_54">
<path id="Vector_86" d="M125.498 254.995C123.757 255.099 121.983 255.378 120.208 255.204C118.363 255.03 116.553 254.438 115.126 253.289C114.952 253.95 114.813 254.612 114.639 255.239C114.57 255.587 114.465 255.935 114.256 256.214C113.491 257.154 110.359 257.328 109.245 257.398C107.609 257.468 105.869 257.363 104.303 256.876C104.164 256.841 103.99 256.771 103.92 256.632C103.85 256.527 103.85 256.423 103.85 256.318C103.816 255.343 103.85 254.403 103.955 253.428C106.461 252.975 108.897 251.965 111.368 251.338C117.075 249.91 122.992 249.527 128.839 248.97C131.832 248.691 134.859 248.378 137.818 247.89C139.105 247.681 140.393 247.263 141.681 247.124C143.212 246.985 144.639 246.985 146.17 246.567C146.623 247.577 147.005 248.657 147.319 249.736C143.212 251.721 138.896 252.313 134.546 253.428C131.971 254.055 129.117 254.821 126.472 254.891C126.159 254.96 125.811 254.995 125.498 254.995Z" fill="#D08DF9"/>
</g>
<g id="Group_55">
<path id="Vector_87" d="M141.437 242.805C142.412 242.945 143.386 243.119 144.291 243.537C145.37 244.024 146.309 244.965 146.518 246.149C146.588 246.532 146.553 246.985 146.309 247.263C146.17 247.403 145.996 247.507 145.822 247.612C143.56 248.796 141.019 249.318 138.548 249.806C135.66 250.398 132.771 250.851 129.917 251.338C126.681 251.895 123.409 252.557 120.138 252.278C118.781 252.174 117.458 251.93 116.101 251.965C112.447 252.104 109.14 254.298 105.486 254.473C105.069 254.507 104.651 254.473 104.303 254.264C103.92 254.02 103.711 253.567 103.537 253.149C102.493 250.258 102.772 246.88 104.268 244.199C108.131 244.477 114.256 244.86 115.892 240.368C116.31 239.253 116.275 238.034 116.553 236.885C116.832 235.736 117.563 234.551 118.711 234.308C119.129 235.492 119.581 236.711 120.416 237.686C122.4 240.089 125.95 240.785 128.873 241.273C132.841 241.935 136.878 242.318 140.88 242.771C141.019 242.771 141.228 242.771 141.437 242.805Z" fill="#0F0E0D"/>
</g>
<g id="Group_56">
<g id="Group_57">
<path id="Vector_88" d="M129.674 241.273C129.674 242.771 129.326 244.233 128.63 245.592C128.525 245.801 128.839 245.975 128.943 245.766C129.639 244.373 130.022 242.84 130.022 241.273C130.022 241.029 129.674 241.029 129.674 241.273Z" fill="white"/>
</g>
</g>
<g id="Group_58">
<g id="Group_59">
<path id="Vector_89" d="M126.194 240.611C125.985 242.213 125.463 243.746 124.628 245.104C124.523 245.313 124.802 245.487 124.941 245.278C125.811 243.85 126.333 242.248 126.542 240.611C126.576 240.402 126.228 240.402 126.194 240.611Z" fill="white"/>
</g>
</g>
<g id="Group_60">
<g id="Group_61">
<path id="Vector_90" d="M123.27 239.566C122.574 240.925 121.843 242.283 121.043 243.572C120.939 243.746 121.217 243.955 121.356 243.746C122.157 242.457 122.922 241.099 123.583 239.741C123.688 239.532 123.375 239.358 123.27 239.566Z" fill="white"/>
</g>
</g>
</g>
<g id="Group_62">
<path id="Vector_91" d="M118.885 160.892C120.312 166.499 121.704 172.141 122.226 177.923C122.679 183.112 122.435 188.301 122.122 193.49C121.286 208.048 120.242 222.571 118.955 237.094C112.238 238.243 105.243 237.79 98.7345 235.805C98.7345 209.302 98.6649 182.102 89.303 157.27C86.0316 148.633 81.6813 140.344 79.4191 131.394C77.7834 125.02 76.6001 116.627 79.1407 110.428C81.3681 104.995 82.4121 101.233 87.5629 96.6709C87.1453 97.1585 93.1661 102.592 93.6881 103.079C97.0292 106.248 100.37 108.651 104.755 110.358C105.521 110.637 106.321 110.95 106.774 111.647C107.087 112.134 107.122 112.726 107.191 113.283C107.957 120.144 110.324 127.145 112.029 133.797C114.326 142.817 116.588 151.837 118.885 160.892Z" fill="#D7BAFB"/>
</g>
<g id="Group_63">
<g id="Group_64">
<path id="Vector_92" d="M94.6626 102.696C93.1313 106.632 91.1476 110.672 91.1128 114.955C91.078 117.15 91.1128 119.378 91.1476 121.573C91.1824 123.732 91.2868 125.926 91.5304 128.085C91.9829 132.404 92.8877 136.653 94.2102 140.762C95.4979 144.733 97.0988 148.564 98.6997 152.429C100.301 156.26 101.902 160.126 103.154 164.096C104.477 168.311 105.312 172.594 105.695 177.017C106.426 185.898 105.556 194.779 105.277 203.66C104.964 212.82 105.034 221.979 105.347 231.139C105.382 232.288 105.417 233.402 105.486 234.552C105.486 234.761 105.834 234.761 105.834 234.552C105.486 225.427 105.312 216.302 105.556 207.212C105.765 198.331 106.635 189.451 106.287 180.57C106.113 176.251 105.625 171.898 104.547 167.684C103.537 163.644 102.076 159.743 100.509 155.912C97.3424 148.111 93.8274 140.449 92.4353 132.056C91.6696 127.632 91.4956 123.209 91.5652 118.717C91.6 116.523 91.3216 114.294 91.774 112.134C92.2265 109.975 93.0269 107.885 93.8274 105.866C94.2102 104.856 94.6278 103.846 95.0107 102.87C95.0803 102.592 94.7671 102.487 94.6626 102.696Z" fill="#8D9DF9"/>
</g>
</g>
<g id="Group_65">
<path id="Vector_93" d="M87.5977 96.6016C87.1801 97.0891 93.4097 102.731 93.897 103.219C97.238 106.423 100.161 109.035 105.069 109.731C105.556 109.801 106.147 109.906 106.426 110.323C106.565 110.498 106.6 110.741 106.635 110.95C107.261 114.433 107.574 118.647 108.723 121.956C102.215 122.199 95.9155 122.269 89.4423 123.14C87.9458 123.349 86.2752 123.662 85.44 124.881C83.9087 127.11 85.614 132.822 86.0664 135.26C86.7625 139.125 87.6673 142.956 88.7114 146.753C90.7996 154.136 93.5838 161.345 97.064 168.206C97.7601 169.599 98.4909 170.992 99.5002 172.142C101.867 174.893 105.521 176.216 108.131 178.759C109.036 179.629 109.732 181.231 108.723 181.998C108.444 182.207 108.062 182.276 107.714 182.311C106.356 182.416 105.034 181.928 103.676 181.858C99.535 181.545 100.266 188.127 100.509 190.809C101.832 205.924 102.006 221.143 101.066 236.328C100.301 236.154 99.535 235.945 98.8041 235.701C98.8041 209.198 98.7345 181.998 89.3727 157.166C86.1012 148.529 81.7509 140.24 79.4888 131.289C77.8531 124.916 76.6698 116.523 79.2104 110.323C81.4377 104.925 82.4818 101.164 87.5977 96.6016Z" fill="#D08DF9"/>
</g>
<g id="Group_66">
<g id="Group_67">
<path id="Vector_94" d="M78.4099 112.657C79.9412 113.179 81.4725 113.736 83.0038 114.294C83.7346 114.572 84.5003 114.851 85.2312 115.129C85.614 115.269 85.9968 115.443 86.3796 115.582C86.5536 115.652 86.7625 115.721 86.9365 115.791C87.0757 115.861 87.2149 115.93 87.3541 115.93C87.5977 115.93 87.7369 115.652 87.5629 115.478C87.4237 115.338 87.1453 115.338 87.1453 115.582C87.1453 115.791 87.4933 115.791 87.4933 115.582C87.3541 115.756 87.2845 115.756 87.2845 115.582C87.2149 115.582 87.1801 115.547 87.1105 115.512C87.0409 115.478 86.9713 115.443 86.9365 115.443C86.7625 115.373 86.5536 115.303 86.3796 115.234C85.9968 115.095 85.6488 114.955 85.266 114.781C84.5003 114.502 83.7694 114.189 83.0038 113.91C81.5073 113.353 79.976 112.796 78.4795 112.308C78.3054 112.274 78.201 112.587 78.4099 112.657Z" fill="#293241"/>
</g>
</g>
<g id="Group_68">
<path id="Vector_95" d="M99.2566 236.572C98.9434 236.467 98.665 236.363 98.4213 236.154C98.0733 235.805 98.0385 235.248 98.0385 234.761C98.0385 232.984 98.1081 231.208 98.3169 229.432C102.006 230.268 105.73 230.86 109.488 231.278C113.108 231.661 116.762 231.557 120.382 231.87C120.034 233.82 119.581 235.771 119.024 237.686C118.99 237.756 118.99 237.86 118.92 237.895C118.85 237.965 118.746 237.965 118.676 237.965C115.44 238.104 112.342 238.696 109.071 238.487C105.73 238.243 102.424 237.616 99.2566 236.572Z" fill="#8652E5"/>
</g>
<g id="Group_69">
<path id="Vector_96" d="M132.702 61.2175C133.607 62.2623 134.442 63.3071 134.372 63.4812C137.122 59.1278 139.871 54.7396 142.655 50.3862C143.699 48.7145 144.813 46.9732 146.449 45.8587C142.412 40.6695 137.261 37.9181 131.379 35.3061C130.996 35.132 130.544 34.9578 130.161 35.1668C129.883 35.3061 129.744 35.6544 129.604 35.933C127.969 39.7988 125.637 43.386 122.783 46.4856C123.932 48.1225 124.732 49.9683 125.706 51.7097C126.542 53.1724 127.655 54.1824 128.63 55.471C129.465 56.5855 129.918 57.8741 130.788 58.9537C130.927 59.1975 131.832 60.2075 132.702 61.2175Z" fill="#FF8C60"/>
</g>
<g id="Group_70">
<path id="Vector_97" d="M129.569 35.933C129.709 35.6195 129.848 35.3061 130.126 35.1668C130.509 34.9578 130.962 35.132 131.344 35.3061C137.261 37.9181 142.412 40.6695 146.414 45.8587C144.813 46.9732 143.734 48.6449 142.69 50.2818C140.95 49.2369 139.21 48.227 137.47 47.4608C135.834 46.7294 134.059 46.1025 132.284 46.3811C130.126 46.6946 128.386 48.2618 126.716 49.62C126.228 50.038 125.706 50.4211 125.184 50.8042C124.419 49.3414 123.688 47.8439 122.748 46.4856C125.602 43.386 127.899 39.7988 129.569 35.933Z" fill="#FF5F5C"/>
</g>
<g id="Group_71">
<path id="Vector_98" d="M160.787 30.2908C160.822 30.3256 160.857 30.3604 160.892 30.3604C161.553 30.8828 162.319 31.2311 162.98 31.7535C163.641 32.2759 164.268 32.9725 164.268 33.8083C164.268 34.2959 164.059 34.8183 163.78 35.2014C162.632 36.9079 160.022 37.4303 158.316 36.281C158.212 36.2114 158.073 36.1069 158.003 36.0024C157.933 35.8631 157.933 35.7238 157.933 35.5497C157.933 33.1118 158.038 30.848 157.446 28.5146C157.307 27.8877 156.402 24.8926 157.69 24.8926C157.933 24.8926 158.073 25.1712 158.177 25.415C158.873 27.1215 159.395 29.0718 160.787 30.2908Z" fill="#F97560"/>
</g>
<g id="Group_72">
<path id="Vector_99" d="M132.632 66.7548C130.231 65.8145 128.143 61.8442 126.681 59.8938C123.931 56.1325 120.834 53.625 117.493 50.386C118.642 48.4705 119.755 46.5551 120.904 44.6396C121.252 44.0823 121.565 43.4903 122.087 43.1072C126.89 39.311 136.217 54.0081 138.757 56.8291C139.105 57.247 139.488 57.6997 139.558 58.2221C139.627 58.9187 139.14 59.5107 138.688 60.0332C136.774 62.2621 134.859 64.491 132.98 66.7548C132.911 66.7896 132.771 66.7896 132.632 66.7548Z" fill="#8652E5"/>
</g>
<g id="Group_73">
<path id="Vector_100" d="M139.036 45.5098C137.713 44.4301 136.46 43.246 135.068 42.2012C132.806 40.4947 130.266 39.1712 128.247 37.1861C124.802 33.8775 123.757 29.8724 124.175 25.2404C124.349 23.0811 124.871 20.9218 125.985 19.076C127.76 16.1854 130.892 14.4788 133.885 12.8768C141.194 8.97614 151.391 9.67268 156.228 16.9167C158.943 20.9567 159.012 26.1807 159.012 31.0217C159.012 33.9472 159.012 36.8378 159.012 39.7633C159.012 44.7436 157.237 53.2414 150.521 52.7886C149.233 52.6842 148.05 52.0573 146.901 51.4304C143.908 49.7935 141.646 47.7039 139.036 45.5098Z" fill="#FF8C60"/>
</g>
<g id="Group_74">
<path id="Vector_101" d="M147.667 24.4746C150.451 23.778 153.27 23.1163 156.054 22.4198C156.472 21.3053 155.532 20.0167 154.384 19.6684C151.913 18.9022 149.442 20.957 147.562 22.2456C147.145 22.5242 146.727 22.8377 146.553 23.3253C146.379 23.8128 146.588 24.4397 147.075 24.5442C147.284 24.579 147.493 24.5094 147.667 24.4746Z" fill="#762415"/>
</g>
<g id="Group_75">
<g id="Group_76">
<path id="Vector_102" d="M153.2 25.7981C153.653 26.4947 153.862 27.3305 153.722 28.1315C153.931 28.1315 154.175 28.1315 154.384 28.1315C154.21 27.3305 154.001 26.4946 153.827 25.6936C153.792 25.5195 153.583 25.415 153.409 25.4498C153.235 25.4847 153.131 25.6936 153.166 25.8678C153.34 26.6688 153.548 27.5046 153.722 28.3057C153.757 28.445 153.896 28.5494 154.07 28.5494C154.21 28.5494 154.384 28.445 154.418 28.3057C154.592 27.2957 154.384 26.2857 153.827 25.4498C153.722 25.3105 153.514 25.2409 153.34 25.3105C153.166 25.415 153.096 25.6588 153.2 25.7981Z" fill="#42210B"/>
</g>
</g>
<g id="Group_77">
<path id="Vector_103" d="M126.159 48.1568C125.985 46.6592 125.95 45.1268 126.576 43.7337C126.611 43.6292 126.681 43.5248 126.75 43.4551C125.01 42.3755 123.409 42.062 122.087 43.072C121.565 43.4899 121.217 44.0472 120.904 44.6044C119.755 46.5199 118.642 48.4354 117.493 50.3509C120.834 53.5898 123.931 56.0974 126.681 59.8587C126.82 60.0328 126.924 60.2069 127.064 60.4159C126.89 56.3063 126.611 52.2315 126.159 48.1568Z" fill="#8652E5"/>
</g>
<g id="Group_78">
<path id="Vector_104" d="M131.379 92.7703C129.5 97.2282 128.177 102.348 125.672 106.457C123.897 109.348 122.365 114.189 119.338 116.035C117.145 117.358 114.117 117.219 112.412 119.1C112.064 119.483 111.716 119.97 111.194 119.97C109.767 119.97 107.122 118.891 105.66 118.577C103.154 118.02 100.683 117.358 98.2473 116.557C93.375 114.99 88.3982 113.736 83.3867 112.657C78.8623 111.681 76.461 109.244 76.2522 104.403C76.0433 99.3178 77.7139 94.1634 80.8461 90.1234C82.0642 88.5562 83.4911 87.1631 84.7092 85.5959C85.9272 83.9939 86.9017 82.2177 87.8762 80.4763C91.0084 74.7995 94.071 68.9137 97.9341 63.7593C100.823 59.2318 104.512 55.2267 108.758 51.9877C111.298 50.0374 114.152 48.3309 117.354 47.913C132.319 45.8582 138.618 69.8889 135.625 80.6853C134.546 84.7601 133.05 88.8 131.379 92.7703Z" fill="#593698"/>
</g>
<g id="Group_79">
<path id="Vector_105" d="M200.079 120.423C200.253 121.433 200.845 122.164 201.297 123.035C201.854 124.08 202.411 125.125 202.968 126.204C203.072 126.379 203.177 126.588 203.177 126.762C203.177 126.936 203.142 127.11 203.107 127.249C202.585 129.095 201.263 130.662 200.044 132.09C199.557 132.647 199.07 133.205 198.444 133.518C197.504 134.006 196.355 133.936 195.277 133.832C194.024 133.727 192.771 133.623 191.518 133.518C190.195 133.414 188.803 133.274 187.62 132.647C186.054 131.812 185.253 129.687 184.453 128.155C183.409 126.1 182.539 123.941 181.878 121.747C181.738 121.259 181.599 120.737 181.321 120.319C181.077 119.97 180.729 119.657 180.416 119.378C179.789 118.856 174.743 115.129 175.056 114.294C176.692 111.124 178.78 108.965 181.912 107.328C184.209 109.244 186.506 111.159 188.803 113.075C191.448 115.269 194.024 115.617 197.295 116.139C198.2 116.279 199.174 116.488 199.696 117.219C200.253 118.055 199.905 119.204 200.044 120.179C200.044 120.319 200.079 120.388 200.079 120.423Z" fill="#FF8C60"/>
</g>
<g id="Group_80">
<path id="Vector_106" d="M126.02 19.1109C127.795 16.2203 130.927 14.5138 133.92 12.9117C138.931 10.23 145.335 9.70763 150.416 12.0062C149.964 14.1655 146.797 16.4989 145.787 18.5537C144.326 21.4792 143.491 24.8922 142.377 27.957C141.611 30.1163 140.811 32.3104 140.811 34.609C140.811 37.3604 141.959 39.9724 143.247 42.4451C145.126 46.0671 147.354 49.515 149.894 52.7191C148.85 52.5102 147.876 51.9877 146.936 51.4653C143.908 49.7936 141.646 47.704 139.036 45.5099C137.713 44.4303 136.46 43.2461 135.068 42.2013C132.806 40.4948 130.266 39.1714 128.247 37.1862C124.802 33.8776 123.757 29.8725 124.175 25.2405C124.384 23.1161 124.871 20.9568 126.02 19.1109Z" fill="#F97560"/>
</g>
<g id="Group_81">
<path id="Vector_107" d="M140.289 22.0366C139.14 22.8724 137.887 23.2555 137.33 24.7879C136.878 26.0417 136.808 27.3999 136.078 28.5841C135.973 28.7582 135.834 28.9323 135.625 29.002C135.173 29.1413 134.79 28.6537 134.546 28.2358C134.094 27.4696 133.537 26.7382 132.771 26.2855C132.006 25.8327 130.996 25.6934 130.196 26.1113C127.412 27.5741 128.595 31.0568 129.187 33.425C129.813 35.9674 129.152 39.9725 127.099 41.7836C126.994 41.888 126.855 41.9925 126.716 41.9925C125.741 42.097 124.106 37.4998 123.757 36.7684C123.235 35.5843 122.713 34.435 122.191 33.2509C121.565 31.8578 120.938 30.4299 120.625 28.9323C120.173 26.7034 120.66 24.7531 120.904 22.5242C121.078 20.9918 120.904 19.4245 120.973 17.8921C121.113 15.1408 122.261 12.3895 124.419 10.6481C125.637 9.67295 127.064 9.04606 128.491 8.41917C135.834 5.2499 143.351 2.95131 150.973 6.95643C153.2 8.14055 155.602 10.056 156.159 12.6681C156.263 13.1557 156.159 13.7477 155.776 14.096C155.428 14.4094 154.906 14.4443 154.453 14.4791C152.504 14.6184 150.555 14.8622 148.606 15.2105C147.11 15.4542 145.265 15.5587 144.117 16.6384C142.655 17.9966 142.307 20.1907 140.811 21.5838C140.637 21.7928 140.463 21.9321 140.289 22.0366Z" fill="#762415"/>
</g>
<g id="Group_82">
<path id="Vector_108" d="M134.929 28.6887C134.163 27.7832 133.363 26.8429 132.319 26.216C131.275 25.5891 129.952 25.3801 128.873 25.9025C127.795 26.4249 127.203 27.6787 127.168 28.8628C127.133 30.047 127.655 31.1962 128.317 32.2062C129.709 34.261 131.971 35.6889 134.407 36.1069" fill="#F97560"/>
</g>
<g id="Group_83">
<g id="Group_84">
<path id="Vector_109" d="M130.544 29.6289C131.971 30.4996 133.085 31.7534 133.746 33.2858C133.815 33.4599 134.059 33.4948 134.233 33.4251C134.407 33.3206 134.442 33.1117 134.372 32.9375C133.641 31.3006 132.423 29.9424 130.892 29.0369C130.509 28.7931 130.161 29.42 130.544 29.6289Z" fill="#42210B"/>
</g>
</g>
<g id="Group_85">
<path id="Vector_110" d="M178.537 120.528C178.397 120.388 178.293 120.214 178.154 120.075C178.084 119.97 177.98 119.866 177.98 119.727C177.98 119.622 178.049 119.483 178.119 119.413C178.641 118.612 184.836 108.443 184.418 108.269C186.959 109.174 188.838 110.846 190.996 112.448C191.344 112.692 191.727 113.005 191.831 113.423C192.005 114.015 191.657 114.607 191.309 115.129C189.221 118.125 186.715 120.841 183.896 123.14C183.304 123.627 182.574 124.115 181.808 123.941C181.286 123.801 180.903 123.349 180.555 122.931C179.824 122.13 179.198 121.329 178.537 120.528Z" fill="#8652E5"/>
</g>
<g id="Group_86">
<path id="Vector_111" d="M128.63 77.6208C127.447 74.7649 126.298 71.9439 125.115 69.0881C122.47 62.7148 119.86 55.4359 122.644 49.0973C122.748 48.8187 122.853 48.5749 122.957 48.3312C121.286 47.7739 119.442 47.565 117.423 47.8436C114.256 48.2615 111.403 50.0029 108.827 51.9183C104.547 55.1573 100.892 59.1624 98.0037 63.6899C94.1406 68.8443 91.078 74.7649 87.9457 80.4069C86.9713 82.1483 85.9968 83.9245 84.7787 85.5265C83.5606 87.0937 82.1337 88.4868 80.9157 90.054C77.7834 94.094 76.1129 99.2484 76.3217 104.333C76.3913 106.492 76.9134 108.164 77.8878 109.453C78.8623 106.632 79.454 103.602 81.3333 101.303C83.1778 99.0742 85.962 97.925 88.2242 96.1139C93.5141 91.9347 95.3935 84.8648 99.0825 79.2228C100.231 77.4466 101.588 75.8097 103.363 74.6953C105.138 73.6156 107.435 73.1629 109.384 73.9291C111.472 74.7649 112.829 76.7501 114.222 78.4914C117.737 82.9493 122.679 87.0241 127.899 89.3575C135.138 92.6661 129.813 80.4766 128.63 77.6208Z" fill="#4F2E8A"/>
</g>
<g id="Group_87">
<path id="Vector_112" d="M145.857 78.3867C147.145 80.0584 148.537 81.6605 150.033 83.1929C152.991 86.1532 156.437 88.5911 159.848 91.029C163.815 93.85 167.26 96.8799 171.715 99.1437C176.135 101.407 180.868 103.253 184.383 106.875C185.427 107.92 186.123 109.418 185.915 110.88C185.775 111.751 185.323 112.587 184.905 113.353C183.339 116.07 182.052 119.761 179.093 121.259C175.717 122.931 171.715 122.164 168.061 121.224C161.066 119.343 153.618 115.234 147.876 110.846C145.822 109.278 143.943 107.467 142.064 105.656C134.163 98.064 126.263 90.4717 119.546 81.8346C116.449 77.8643 113.595 73.5806 112.273 68.7396C110.533 62.4011 112.273 50.0374 121.356 51.4654C127.412 52.4057 132.214 58.8487 135.59 63.4459C139.14 68.2869 142.133 73.5806 145.857 78.3867Z" fill="#593698"/>
</g>
<g id="Group_88">
<path id="Vector_113" d="M187.585 130.349C188.072 130.697 188.594 131.289 189.186 131.08C189.673 130.906 189.847 130.279 190.23 129.931C190.683 129.548 191.379 129.583 191.935 129.791C192.492 130.035 192.98 130.418 193.502 130.662C194.058 130.941 194.72 131.08 195.242 130.767C195.799 130.453 196.007 129.757 196.425 129.269C196.808 128.851 197.365 128.573 197.956 128.573C198.27 128.573 198.583 128.642 198.861 128.573C199.522 128.433 199.87 127.702 200.044 127.005C200.218 126.344 200.288 125.612 200.775 125.125C201.158 124.776 201.645 124.672 202.167 124.672C202.446 125.194 202.689 125.682 202.968 126.204C203.072 126.378 203.177 126.587 203.177 126.762C203.177 126.936 203.142 127.11 203.107 127.249C202.585 129.095 201.263 130.662 200.044 132.09C199.557 132.647 199.07 133.205 198.444 133.518C197.504 134.006 196.355 133.936 195.277 133.831C194.024 133.727 192.771 133.622 191.518 133.518C190.195 133.413 188.803 133.274 187.62 132.647C186.576 132.09 185.88 130.976 185.288 129.826C186.089 129.722 186.924 129.861 187.585 130.349Z" fill="#FF5F5C"/>
</g>
<g id="Group_89">
<path id="Vector_114" d="M109.976 122.722C110.289 122.791 110.637 122.861 110.95 122.931C111.159 122.965 111.368 123 111.542 122.931C111.785 122.861 111.925 122.617 112.064 122.373C112.83 121.05 113.526 119.657 114.152 118.264C112.586 117.184 109.628 117.045 107.783 116.488C105.173 115.721 102.563 114.92 99.9526 114.154C94.9063 112.657 89.8947 111.159 84.8483 109.661C82.3774 108.93 79.0015 108.86 76.8786 107.572C76.7046 108.791 75.8345 111.786 76.2869 112.9C76.8438 114.363 78.3403 114.363 79.6976 114.781C83.0734 115.826 86.4145 117.08 89.8251 118.055C94.1754 119.274 98.5605 120.179 103.015 121.015C105.382 121.537 107.679 122.199 109.976 122.722Z" fill="#8652E5"/>
</g>
<g id="Group_90">
<path id="Vector_115" d="M103.885 107.99C103.676 106.457 103.12 105.064 102.737 103.636C104.86 102.069 108.27 101.233 110.741 100.154C113.526 98.9347 116.345 97.9247 119.129 96.7058C119.442 96.5665 119.86 96.4271 120.138 96.6013C120.347 96.7058 120.451 96.9496 120.521 97.1585C120.799 97.8202 121.113 98.4819 121.391 99.1437C121.495 99.3875 121.6 99.6312 121.53 99.875C121.461 100.188 121.217 100.397 120.973 100.606C118.468 102.557 116.031 103.985 113.108 105.169C112.516 105.413 104.025 109 103.885 107.99Z" fill="#8652E5"/>
</g>
<g id="Group_91">
<path id="Vector_116" d="M171.715 99.1088C167.261 96.8451 163.85 93.8499 159.848 90.9941C156.437 88.5562 152.992 86.1183 150.033 83.158C148.537 81.6604 147.145 80.0236 145.857 78.3519C142.133 73.5457 139.14 68.252 135.521 63.3414C134.929 62.5403 134.268 61.6697 133.607 60.7642C138.723 69.5058 143.873 78.2822 148.989 87.0238C149.511 87.8945 150.033 88.8696 149.964 89.8796C149.859 91.2379 148.78 92.2479 147.91 93.2579C147.04 94.3027 146.344 95.8002 147.075 96.9147C148.711 97.2282 150.138 95.8699 151.634 95.1385C154.906 93.4668 158.978 94.6858 162.11 96.6361C165.242 98.5864 167.922 101.268 171.228 102.835C174.813 104.542 179.163 105.064 181.738 108.059C183.026 109.592 183.722 111.542 184.94 113.109C185.358 112.378 185.775 111.612 185.88 110.776C186.089 109.313 185.393 107.85 184.348 106.771C180.868 103.253 176.135 101.373 171.715 99.1088Z" fill="#633AAD"/>
</g>
<g id="Group_92">
<path id="Vector_117" d="M143.247 38.684C143.247 38.7188 143.247 38.7188 143.247 38.684C144.361 39.1716 145.474 38.1964 146.449 37.4999C149.685 35.1664 154.105 35.5495 158.073 36.0371C158.664 36.1068 159.326 36.2112 159.778 36.6292C160.335 37.1516 160.439 37.9874 160.37 38.7536C160.161 40.8781 160.926 43.4205 160.3 45.4056C160.091 46.0325 159.708 46.6246 159.43 47.2166C158.49 49.3411 159.012 51.8138 158.873 54.1472C158.838 54.6 158.769 55.0527 158.56 55.4358C158.281 55.8886 157.829 56.1672 157.342 56.411C154.906 57.5603 152.539 57.0379 149.998 56.8289C147.353 56.6199 144.743 55.5403 142.76 53.7989C139.036 50.5252 137.574 45.4056 136.843 40.495C136.112 35.5844 135.938 30.5344 133.989 25.9373C134.825 24.2655 135.799 24.1959 137.33 23.5342C137.922 24.1611 137.992 24.8228 138.061 25.6935C138.374 29.8379 139.558 34.8182 142.377 38.0223C142.655 38.266 142.899 38.5447 143.247 38.684Z" fill="#762415"/>
</g>
<g id="Group_93">
<g id="Group_94">
<path id="Vector_118" d="M149.859 40.321C150.312 41.9927 151.773 43.3509 153.479 43.6296C155.254 43.9082 157.063 43.0723 158.038 41.5748C158.281 41.1917 157.69 40.8434 157.446 41.2265C156.646 42.4803 155.045 43.1768 153.583 42.933C152.121 42.6892 150.938 41.5399 150.555 40.1468C150.416 39.7289 149.755 39.903 149.859 40.321Z" fill="#F97560"/>
</g>
</g>
</g>
<g id="cap">
<g id="Group_95">
<path id="Vector_119" d="M171.332 14.096C172.516 13.7477 173.977 12.9467 173.734 11.7278C169.105 12.3198 164.546 13.3646 160.126 14.897C159.743 15.0363 159.36 15.1408 159.012 15.0015C158.664 14.8622 158.421 14.5139 158.247 14.2005C155.915 10.1257 154.871 5.31956 151.843 1.7672C151.217 1.03583 150.486 0.339286 149.546 0.0954959C148.78 -0.113467 147.945 0.0606688 147.145 0.234804C138.583 1.97616 121.565 3.71752 119.303 14.2701C118.642 17.3001 119.059 20.4345 119.581 23.4645C119.616 23.6038 119.651 23.7779 119.755 23.8824C121.008 25.171 129.395 23.0466 131.031 22.8376C135.695 22.1759 140.358 21.4097 144.987 20.5042C153.862 18.7628 162.667 16.6384 171.332 14.096Z" fill="#4F2E8A"/>
</g>
<g id="Group_96">
<path id="Vector_120" d="M173.734 11.7278C169.105 12.3198 164.546 13.3646 160.126 14.897C159.743 15.0363 159.36 15.1408 159.012 15.0015C158.664 14.8622 158.421 14.5139 158.247 14.2005C155.915 10.1257 154.871 5.31956 151.843 1.7672C151.217 1.03583 150.486 0.339286 149.546 0.0954959C148.78 -0.113467 147.945 0.0606688 147.145 0.234804C146.031 0.443767 144.778 0.687557 143.421 0.931347C142.655 3.22994 143.073 5.98128 143.769 8.38435C144.604 11.2053 145.683 14.0263 146.135 16.9518C146.17 17.1608 146.205 17.4046 146.066 17.6135C145.927 17.8225 145.683 17.8922 145.439 17.927C143.073 18.4494 119.477 23.1162 119.407 22.8028C119.442 23.0466 119.477 23.2555 119.512 23.4645C119.546 23.6038 119.581 23.7779 119.686 23.8824C120.938 25.171 129.326 23.0466 130.962 22.8376C135.625 22.1759 140.289 21.4097 144.917 20.5042C153.792 18.7977 162.597 16.6384 171.298 14.096C172.55 13.7477 174.012 12.9467 173.734 11.7278Z" fill="#70599A"/>
</g>
</g>
</g>
</svg>
