<svg width="123" height="132" viewBox="0 0 123 132" fill="none" xmlns="http://www.w3.org/2000/svg">
<path d="M82.1697 45.5925C82.4355 43.0675 82.6348 40.476 82.7013 37.951H82.9671C83.0335 37.951 83.1664 37.6852 83.1664 37.353C83.2328 33.5655 82.9671 29.8445 82.5019 26.1234C82.4355 25.7912 82.369 25.5254 82.3026 25.5254L80.8407 25.6583C80.7743 25.6583 80.7079 25.9241 80.7079 26.2563C80.7743 29.9109 80.5085 33.4991 79.9769 37.0208C79.9105 37.353 79.9769 37.6188 80.0434 37.6188H80.3092C79.9105 40.0773 79.4454 42.4694 78.7809 44.7951C78.7144 45.1273 78.7144 45.3267 78.7809 45.3931L79.0467 45.4596C78.3822 47.8517 77.6513 50.1773 76.7875 52.4365C76.6546 52.7023 76.6546 52.9681 76.7875 53.0345L77.0533 53.101C76.1894 55.4266 75.1927 57.6859 74.1296 59.8786C73.9967 60.1444 73.9967 60.4102 74.0631 60.4766L74.3289 60.6095C73.2658 62.8023 72.1362 64.995 70.8737 67.1214C70.7408 67.3871 70.6743 67.6529 70.8072 67.7194L71.1395 67.8523C69.9434 69.9786 68.6145 72.1049 67.2855 74.1648C67.0862 74.4306 67.0862 74.6963 67.2191 74.7628L67.5513 74.8957C66.2224 76.9556 64.827 79.0154 63.3651 81.0753C63.1658 81.3411 63.1658 81.6069 63.2322 81.6733L63.5645 81.8727C62.1691 83.9325 60.6408 85.9259 59.1789 87.9193C58.9796 88.1851 58.9132 88.4509 59.046 88.5174L59.3783 88.7167C57.9164 90.7101 56.3882 92.7036 54.8599 94.7634C54.6605 95.0292 54.5941 95.295 54.727 95.3614L55.0592 95.5608C53.5309 97.5542 52.0691 99.6141 50.6073 101.674C50.4079 101.94 50.4079 102.206 50.5408 102.272L50.9395 102.471C49.4776 104.531 48.0158 106.657 46.6204 108.85C46.4211 109.116 46.4211 109.448 46.6204 109.515L47.0191 109.714C45.6902 111.907 44.3612 114.166 43.2981 116.691C43.1652 117.023 43.1652 117.289 43.3645 117.355L43.8296 117.488C42.7665 119.947 41.9027 122.538 41.504 125.462C41.4375 125.861 41.5704 126.127 41.7698 126.127H48.0158C48.2151 126.127 48.348 125.927 48.2816 125.661C48.0158 123.602 48.2152 121.276 48.6138 118.95L49.079 119.083C49.2783 119.15 49.4112 118.95 49.4777 118.684C49.8763 116.425 50.5408 114.1 51.3382 111.774L51.7369 111.973C51.8697 112.04 52.0691 111.84 52.202 111.575C52.9994 109.249 53.8632 106.99 54.8599 104.731L55.2586 104.93C55.3915 104.996 55.5908 104.863 55.7237 104.531C56.7204 102.272 57.7171 100.013 58.7803 97.6871L59.1789 97.8864C59.3118 97.9529 59.5112 97.82 59.6441 97.4877C60.7072 95.2285 61.7704 92.9693 62.8335 90.6437L63.1658 90.843C63.2987 90.9095 63.498 90.7766 63.6309 90.4443C64.6941 88.1851 65.7572 85.8595 66.8204 83.6003L67.1526 83.7996C67.2855 83.8661 67.4848 83.6667 67.6177 83.4009C68.6145 81.0753 69.6776 78.7496 70.6079 76.424L70.9401 76.6233C71.073 76.6898 71.2723 76.4904 71.4052 76.2246C72.3355 73.899 73.2658 71.5069 74.1296 69.1148L74.4618 69.2477C74.5947 69.3141 74.7276 69.1148 74.8605 68.7825C75.7243 66.3904 76.5217 63.9983 77.2526 61.5398L77.5184 61.6727C77.6513 61.7391 77.7842 61.4734 77.8506 61.2076C78.5815 58.749 79.1796 56.2905 79.7111 53.8319L79.9769 53.8984C80.1098 53.8984 80.2427 53.699 80.3092 53.3668C80.8407 50.8418 81.2394 48.3832 81.5717 45.8582L81.8375 45.9247C82.0368 46.1905 82.1032 45.9247 82.1697 45.5925Z" fill="#513684"/>
<path d="M35.723 58.749C34.9257 56.9549 34.1283 55.2273 33.2645 53.4996L33.4638 53.4332C33.5303 53.4332 33.5303 53.2339 33.3974 52.9681C32.1349 50.4431 30.8724 47.9181 29.5434 45.4595C29.4105 45.2602 29.2776 45.0608 29.2112 45.1273L28.0151 45.6589C27.9487 45.6589 27.9487 45.9247 28.0816 46.124C29.0783 48.7154 30.0086 51.3733 30.8059 54.0312C30.8724 54.2306 31.0053 54.4299 31.0717 54.4299L31.2711 54.3635C31.8691 56.1575 32.3342 58.0181 32.7993 59.8121C32.8658 60.0779 32.9987 60.2108 33.0651 60.2108L33.2645 60.1444C33.7296 62.0049 34.1947 63.799 34.527 65.6595C34.5934 65.9253 34.6599 66.0582 34.7928 66.0582L35.0585 65.9917C35.4572 67.8522 35.7895 69.7128 36.0553 71.5733C36.1217 71.8391 36.1882 71.972 36.321 71.972L36.5868 71.9055C36.8526 73.7661 37.052 75.6266 37.2513 77.4871C37.2513 77.7529 37.3842 77.8858 37.4507 77.8858L37.7164 77.8193C37.8493 79.6799 37.9822 81.6068 37.9822 83.4674C37.9822 83.7331 38.1151 83.866 38.1816 83.866L38.5138 83.7996C38.5803 85.6601 38.5138 87.5871 38.4474 89.4476C38.4474 89.7134 38.5138 89.8463 38.6467 89.8463H38.9789C38.9125 91.7068 38.7796 93.5673 38.5803 95.4943C38.5803 95.7601 38.6467 95.893 38.7796 95.893H39.1118C38.9125 97.7535 38.6467 99.614 38.3145 101.475C38.248 101.74 38.3809 101.94 38.5138 101.94H38.846C38.5138 103.8 38.1816 105.661 37.7829 107.521C37.7164 107.787 37.7829 107.986 37.9158 107.986L38.3145 107.853C37.9158 109.714 37.4507 111.575 36.9855 113.435C36.9191 113.701 36.9855 113.9 37.1184 113.9L37.5171 113.967L36.1217 119.548C36.0553 119.814 36.1217 120.013 36.321 120.013L36.7197 120.08C36.2546 121.94 35.8559 123.867 35.4572 125.861C35.3908 126.126 35.5237 126.326 35.6566 126.326L41.0388 126.525C41.1717 126.525 41.3046 126.326 41.3046 126.126C41.1052 124.266 41.0388 122.405 40.9724 120.545L41.371 120.611C41.5039 120.611 41.6368 120.478 41.6368 120.213C41.5704 118.352 41.5704 116.425 41.5704 114.498L41.9691 114.565C42.102 114.565 42.2349 114.365 42.2349 114.166C42.2349 112.239 42.1684 110.312 42.102 108.385L42.5006 108.452C42.6335 108.452 42.7664 108.252 42.7664 108.053C42.7 106.126 42.6335 104.132 42.5006 102.205H42.8329C42.9658 102.205 43.0987 102.006 43.0322 101.74C42.8993 99.8134 42.7 97.82 42.5006 95.893H42.8329C42.9658 95.893 43.0322 95.6936 43.0322 95.4279C42.8329 93.5009 42.5006 91.5739 42.2349 89.6469H42.5671C42.7 89.6469 42.7664 89.4476 42.7 89.1818C42.3677 87.2548 41.9691 85.3279 41.5704 83.4674L41.9026 83.4009C42.0355 83.4009 42.0355 83.2016 42.0355 82.9358C41.5704 81.0088 41.1053 79.1483 40.5737 77.2878L40.8395 77.2213C40.9724 77.2213 40.9724 77.022 40.9059 76.7562C40.3743 74.8957 39.7763 73.0351 39.1783 71.1746L39.4441 71.1082C39.5105 71.1082 39.577 70.8424 39.4441 70.643C38.846 68.7825 38.1151 66.9884 37.4507 65.1944L37.7164 65.1279C37.7829 65.1279 37.7829 64.8621 37.7164 64.6628C36.9855 62.8687 36.2546 61.0746 35.5237 59.347L35.723 59.2806C35.7895 59.1477 35.7895 58.9483 35.723 58.749Z" fill="#513684"/>
<path d="M10.5395 41.8615C10.6059 41.7951 10.2737 41.5958 9.87503 41.3964C9.47635 41.1971 9.14411 40.9977 9.21056 40.9313C10.2737 40.2668 11.4033 39.6023 12.5994 39.2701C13.3303 39.0708 14.5263 39.2037 15.3902 39.4694C15.5895 39.5359 15.8553 39.6023 16.0546 39.6688C16.1211 39.7352 16.254 39.7352 16.3204 39.7352L16.4533 39.8017L16.5862 39.8681C16.852 40.001 16.9849 40.0675 16.9849 40.001C16.9184 39.7352 16.7191 39.4694 16.5198 39.2701C16.4533 39.2037 16.4533 39.2037 16.3204 39.1372C16.254 39.0708 16.1211 39.0708 16.0546 39.0708C15.9217 39.0043 15.7888 38.9379 15.6559 38.8714C15.1908 38.6721 14.7921 38.6721 15.0579 38.6056C15.2573 38.5392 15.523 38.5392 15.7224 38.4727L16.1211 38.4063H16.254H16.3204H16.4533C16.852 38.4063 17.2507 38.3398 17.5829 38.3398C18.3138 38.3398 19.0448 38.3398 19.7092 38.3398C19.9086 38.3398 20.4401 38.6056 20.9717 38.8714C21.5033 39.1372 22.0349 39.403 22.2342 39.4694C22.6329 39.5359 21.6362 38.5392 22.0349 38.5392C24.2941 38.8714 26.0217 39.4694 27.0184 40.2668C27.4835 40.6655 27.6829 41.0642 27.7493 41.3964C27.8158 41.7287 27.7493 41.8615 27.7493 41.8615C27.7493 41.8615 27.7493 41.7951 27.6829 41.7287C27.6164 41.6622 27.55 41.5958 27.3507 41.4629C27.1513 41.3964 26.952 41.33 26.6197 41.33C26.3539 41.33 25.9553 41.33 25.5566 41.3964C24.6928 41.5293 23.6296 41.7287 22.2342 42.0609C20.8388 42.3931 19.1776 42.7918 17.1842 43.2569C16.9849 43.3234 17.5829 42.7254 18.1809 42.1938C18.779 41.6622 19.4434 41.1306 19.2441 41.1971C19.1112 41.1971 18.8454 41.3964 18.3803 41.5958C18.1809 41.7287 17.9151 41.8615 17.7158 41.9944L17.3171 42.1938L17.0513 42.3931L16.9849 42.4596L16.9184 42.526C16.9184 42.5925 16.7191 42.6589 16.6526 42.7918L16.3204 43.0576C16.1211 43.2569 15.9217 43.3898 15.7888 43.5227C15.4566 43.7885 15.2573 44.0543 15.1244 44.0543C14.6592 44.2536 14.2605 44.453 13.8619 44.7188C13.6625 44.7852 14.0612 44.1208 14.5928 43.3898C15.0579 42.6589 15.7224 42.0609 15.4566 42.1273C15.3237 42.1938 14.3934 42.9247 13.6625 43.855C12.9316 44.7188 12.4 45.649 12.2671 45.7155L11.9349 45.9813C11.4033 46.38 10.9382 46.7786 10.4731 47.1773C10.3402 47.3102 10.4066 46.6457 10.5395 45.9148C10.6724 45.1839 10.9382 44.5194 10.7388 44.5859C10.606 44.6523 10.0079 45.649 9.60924 46.5793C9.21056 47.576 9.07766 48.5063 8.94477 48.6392C8.34674 49.3701 7.81517 50.101 7.41648 50.7655C7.35004 50.8984 7.15069 50.5661 7.0178 50.2339C6.8849 49.9017 6.75201 49.503 6.68556 49.6359C6.61912 49.7688 6.55267 50.3668 6.48622 51.0313C6.48622 51.6293 6.55267 52.2273 6.48622 52.3602C6.22043 52.8918 6.02109 53.4234 5.82175 53.8885C5.7553 54.0214 5.55596 53.6227 5.42307 53.224C5.22372 52.8253 5.09083 52.3602 5.02438 52.4931C4.89149 52.6924 4.89149 53.4898 4.95793 54.2207C5.09083 55.0181 5.22372 55.749 5.15728 55.9484C4.82504 56.9451 4.6257 57.4102 4.6257 57.4102C4.6257 57.4102 4.29346 57.0115 3.89478 56.0148C3.82833 55.8819 3.96123 55.0845 4.09412 54.2872C4.29346 53.4898 4.4928 52.6924 4.4928 52.5596C4.4928 52.4267 4.16057 52.9582 3.89478 53.4898C3.62899 54.0214 3.3632 54.6194 3.3632 54.4865C3.16386 53.7556 3.09741 52.8918 3.09741 51.8286C3.09741 51.6293 3.62899 50.7655 4.22702 49.9681C4.82504 49.1707 5.48951 48.5063 5.55596 48.3069C5.62241 48.1076 5.02438 48.4398 4.42636 48.905C3.82833 49.3036 3.29675 49.7688 3.29675 49.5694C3.3632 49.2372 3.42965 48.9714 3.4961 48.6392C3.56254 48.4398 4.35991 47.5096 5.29017 46.7786C6.15399 46.0477 7.08425 45.5161 6.95135 45.5161C6.41977 45.3832 5.68885 45.7155 5.15728 46.0477C4.6257 46.38 4.22702 46.7786 4.29346 46.5793C4.95793 45.1839 5.8882 43.7885 7.21714 42.526C7.41648 42.3267 8.1474 42.1273 8.87832 42.0609C9.60924 41.9944 10.2737 41.9944 10.5395 41.8615Z" fill="#513684"/>
<path d="M19.5764 48.8385C19.5764 48.772 19.2441 48.772 18.8454 48.772C18.4468 48.772 18.0481 48.772 18.1145 48.7056C18.3803 47.9082 18.7125 47.1773 19.1777 46.4464C19.4435 46.0477 20.3073 45.649 21.0382 45.5161C21.7691 45.3168 22.3671 45.2503 22.2342 45.1839C21.7027 44.8517 21.1711 44.9181 20.706 44.9846C20.3073 45.051 20.0415 45.1839 20.1744 45.051C20.9717 44.1207 21.7691 43.3234 22.6329 42.7918C22.7658 42.7253 23.231 42.6589 23.7625 42.6589C24.2277 42.6589 24.7592 42.6589 24.8257 42.6589C24.9586 42.5925 24.7592 42.4596 24.4934 42.3267C24.2941 42.1938 24.0283 42.0609 24.1612 41.9944C24.9586 41.6622 25.7559 41.5293 26.4204 41.5293C27.0849 41.5293 27.6165 41.5957 27.9487 41.7286C28.7461 41.9944 29.0119 42.3267 29.0119 42.3267L28.6132 42.5925C28.3474 42.7918 27.9487 42.9911 27.55 43.3898C26.6862 44.1207 25.7559 45.3832 24.6928 47.4431C24.6263 47.576 24.4934 46.978 24.427 46.3799C24.3606 45.7819 24.2941 45.1839 24.2277 45.2503C24.1612 45.3832 24.0283 46.1806 24.0283 47.0444C24.0283 47.8418 24.1612 48.6392 24.0948 48.772C23.9619 49.0378 23.829 49.3701 23.7625 49.6359C23.6961 49.5694 23.4303 49.0378 23.231 48.3734C23.0316 47.7089 22.8987 47.0444 22.8323 47.1773C22.7658 47.2438 22.8323 48.1076 22.9652 48.9714C23.0981 49.7688 23.3638 50.5661 23.2974 50.6326L23.231 50.8984C23.0981 51.297 22.9652 51.6957 22.8323 52.0944C22.7658 52.2273 22.4336 51.7622 22.1678 51.297C21.8356 50.8319 21.5698 50.3003 21.5033 50.4332C21.4369 50.5661 21.6362 51.297 21.902 52.028C22.1678 52.7589 22.5 53.3569 22.5 53.4234C22.3671 54.0214 22.2342 54.553 22.1013 55.0181C22.1013 55.151 21.8356 55.0181 21.5698 54.8852C21.304 54.7523 21.0382 54.553 21.0382 54.6859C21.0382 54.7523 21.2375 55.151 21.4369 55.4832C21.7027 55.8155 21.9685 56.0812 21.902 56.1477C21.8356 56.4799 21.8356 56.8122 21.8356 57.1444C21.8356 57.2108 21.5033 57.1444 21.2375 57.0115C20.9053 56.8786 20.6395 56.6793 20.6395 56.8122C20.6395 56.9451 20.9053 57.4102 21.2375 57.7424C21.5698 58.0747 21.902 58.3404 21.9685 58.4733C22.1013 59.1378 22.2342 59.5365 22.1678 59.5365C22.1678 59.5365 21.7691 59.6029 20.9717 59.3372C20.9053 59.3372 20.5731 58.8056 20.3737 58.2076C20.1744 57.676 20.1079 57.078 20.0415 57.0115C19.975 56.9451 19.9086 57.4102 19.9086 57.8089C19.9086 58.274 19.975 58.7391 19.9086 58.6727C19.4435 58.3404 18.9783 57.8089 18.5132 57.1444C18.4468 57.0115 18.5132 56.2806 18.779 55.5497C18.9783 54.8852 19.3106 54.2207 19.2441 54.1543C19.2441 54.0214 18.8454 54.4201 18.5132 54.8852C18.181 55.3503 17.8487 55.8155 17.7823 55.6826C17.7158 55.4832 17.6494 55.2839 17.5829 55.0181C17.5165 54.8852 17.9152 54.0214 18.3139 53.3569C18.7125 52.626 19.1777 52.0944 19.0448 52.0944C18.5796 52.2273 18.1145 52.626 17.8487 52.9582C17.5165 53.3569 17.3836 53.6891 17.3836 53.5562C17.3171 52.4931 17.3171 51.4299 17.5829 50.2339C17.6494 50.0345 18.0481 49.7023 18.5796 49.4365C19.0448 49.2372 19.5099 48.9714 19.5764 48.8385Z" fill="#513684"/>
<path d="M27.2842 50.1677C27.2842 50.1013 25.8224 50.3006 25.8224 50.1677C25.8888 49.769 25.8888 49.3704 26.0217 48.9717C26.0882 48.7059 26.6862 48.3736 27.1513 48.1079C27.6164 47.7756 28.0816 47.5763 27.9487 47.5763C26.7526 47.6427 26.1546 48.3072 26.1546 48.1743C26.2875 47.5763 26.4204 46.9782 26.6197 46.4467C26.6862 46.3138 27.7493 45.5164 27.8158 45.3835C27.8822 45.1842 26.8855 45.7157 26.8855 45.5164C27.55 43.6559 28.2145 42.6592 28.2809 42.6592C28.2809 42.6592 28.746 42.925 29.4105 43.6559C30.0085 44.3868 30.8059 45.6493 31.2046 47.7092C31.2046 47.8421 30.8059 47.4434 30.3408 47.1776C29.8757 46.8454 29.4105 46.5796 29.4105 46.646C29.4105 46.7125 29.9421 47.244 30.4072 47.7756C30.8724 48.3072 31.3375 48.9052 31.3375 48.9717C31.3375 49.2375 31.3375 49.5032 31.3375 49.8355C31.3375 49.9684 30.9388 49.5032 30.4737 49.1046C30.0085 48.7059 29.5434 48.3072 29.5434 48.4401C29.5434 48.5065 30.0085 49.0381 30.4072 49.6361C30.8724 50.2342 31.271 50.8322 31.2046 50.9651V51.2309C31.1381 51.6296 31.0717 52.0282 31.0053 52.3605C30.9388 52.4934 30.6066 52.0947 30.2743 51.696C29.8757 51.2973 29.5434 50.9651 29.477 51.0315C29.477 51.098 29.7428 51.696 30.075 52.294C30.3408 52.8921 30.6066 53.5565 30.5401 53.623C30.2743 54.1546 30.0085 54.6197 29.6763 55.0184C29.6099 55.0848 29.4105 54.8855 29.2112 54.6197C29.0118 54.4203 28.8125 54.1546 28.746 54.221C28.6796 54.2874 28.746 54.6197 28.8125 55.0184C28.8789 55.417 28.8789 55.7493 28.8125 55.8157C28.5467 56.0815 28.2809 56.2809 28.0151 56.4138C27.9487 56.4802 27.8158 56.148 27.7493 55.8822C27.6164 55.6164 27.55 55.3506 27.4836 55.3506C27.3507 55.417 27.2842 55.7493 27.2178 56.148C27.1513 56.4802 27.0184 56.8789 26.8855 56.8789C26.2875 57.0118 25.9553 57.0118 25.9553 57.0118C25.9553 57.0118 25.8888 56.6795 25.8224 56.148C25.8224 56.0815 26.0882 55.8822 26.3539 55.6828C26.6197 55.4835 26.8855 55.2177 26.8855 55.1513C26.8855 55.0848 26.6197 55.2177 26.2875 55.2842C26.0217 55.3506 25.6895 55.4835 25.6895 55.417C25.623 55.0848 25.623 54.7526 25.5566 54.3539C25.5566 54.2874 25.9553 54.1546 26.3539 53.8888C26.7526 53.6894 27.1513 53.4236 27.1513 53.3572C27.1513 53.2907 26.6862 53.4236 26.2875 53.4901C25.8888 53.5565 25.4237 53.623 25.4237 53.5565V53.2243C25.4237 53.1578 25.8888 52.9585 26.3539 52.6927C26.8191 52.4269 27.2178 52.0947 27.0849 52.0947C26.1546 52.0947 25.3572 52.6263 25.3572 52.5598C25.3572 52.0947 25.3572 51.5631 25.4237 50.9651C25.4237 50.8986 25.8224 50.6993 26.2211 50.5664C26.8855 50.4335 27.2178 50.3006 27.2842 50.1677Z" fill="#513684"/>
<path d="M37.7829 45.1175C37.7165 45.1175 37.65 45.4497 37.5836 45.8484C37.5171 46.2471 37.4507 46.5793 37.3842 46.5793C36.9191 46.38 36.3875 46.1807 35.9224 45.8484C35.6566 45.7155 35.3244 45.051 35.0586 44.453C34.7928 43.855 34.527 43.3899 34.527 43.4563C34.3941 44.6524 35.0586 45.4497 34.8592 45.3833L32.7329 44.453C32.6665 44.3866 32.4007 44.0543 32.1349 43.7221C31.8691 43.3899 31.6033 43.0576 31.5369 43.0576C31.3375 42.9912 31.7362 44.0543 31.5369 43.9879C30.4073 43.5228 29.5435 43.0576 28.879 42.7918C28.281 42.5261 27.9487 42.3267 27.9487 42.3267C27.9487 42.3267 28.281 41.7951 29.477 41.1971C30.6066 40.6655 32.6 40.0675 35.4573 40.3333C35.5902 40.3333 35.0586 40.6655 34.527 40.9978C33.9954 41.33 33.4639 41.7287 33.5967 41.7287C33.7296 41.7287 34.527 41.3965 35.3244 41.0642C36.1217 40.732 37.052 40.5326 37.1849 40.5991C37.5836 40.6655 37.9823 40.7984 38.3145 40.9313C38.4474 40.9978 37.7829 41.1971 37.1184 41.4629C36.454 41.7287 35.856 42.0609 35.9888 42.0609C36.0553 42.0609 36.9191 41.7951 37.7829 41.6622C38.6467 41.4629 39.6434 41.3965 39.7099 41.4629L40.0421 41.5958C40.5737 41.8616 41.0388 42.1274 41.504 42.5261C41.6369 42.6589 40.9724 42.7254 40.3744 42.8583C39.7763 42.9912 39.1783 43.1905 39.3112 43.257C39.4441 43.3234 40.2415 43.3234 41.1053 43.3899C41.9691 43.4563 42.8994 43.7886 42.9658 43.9214C43.5638 44.6524 44.029 45.4497 44.2283 46.2471C44.2948 46.4464 43.9625 46.3136 43.6303 46.2471C43.298 46.1807 42.9658 46.1142 43.0323 46.2471C43.0987 46.38 43.4974 46.6458 43.8961 47.0445C44.2948 47.4432 44.627 47.9083 44.5605 48.0412C44.5605 48.6392 44.4276 49.1043 44.2948 49.503C44.2283 49.6359 44.029 49.3037 43.7632 49.0379C43.4974 48.7721 43.2316 48.5063 43.2316 48.6392C43.1651 48.7721 43.3645 49.3037 43.4309 49.8352C43.4974 50.3668 43.4974 50.8984 43.4309 50.9649C42.8994 51.4964 42.5007 51.6293 42.5007 51.6293C42.5007 51.6293 42.3678 51.2306 42.102 50.6326C42.102 50.5662 42.3013 50.1675 42.4342 49.7688C42.5671 49.3701 42.6336 48.8385 42.5671 48.7721C42.5007 48.7056 42.3678 49.0379 42.1684 49.3701C41.9691 49.6359 41.7698 49.9017 41.7033 49.8352C41.504 49.503 41.3046 49.1708 41.0388 48.905C40.9724 48.8385 41.2382 48.5063 41.3711 47.9747C41.504 47.5096 41.4375 46.9116 41.3711 46.8451C41.3046 46.7787 41.1717 47.2438 40.9724 47.7089C40.773 48.1076 40.5073 48.4399 40.4408 48.4399L40.175 48.2405C40.1086 48.2405 40.2415 47.7089 40.175 47.1109C40.1086 46.5129 39.9092 45.9149 39.9092 46.0478C39.7099 46.5129 39.7099 46.978 39.7099 47.3103C39.7099 47.6425 39.6434 47.9083 39.6434 47.8418C39.2448 47.576 38.7132 47.3103 38.1152 46.978C38.0487 46.9116 37.9823 46.5129 37.9158 46.0478C37.9823 45.6491 37.9158 45.1839 37.7829 45.1175Z" fill="#513684"/>
<path d="M36.6533 37.3435C36.5204 37.3435 37.4507 38.606 37.3178 38.6724C36.7862 38.8053 36.2546 39.0047 35.6566 39.0711C35.3244 39.1376 34.6599 38.8053 34.1283 38.5395C33.5303 38.2737 33.0651 38.0744 33.0651 38.1408C33.7296 39.1376 34.7263 39.3369 34.527 39.4033C33.7296 39.6027 33.0651 39.8685 32.5336 40.0678C32.4671 40.0678 32.0684 40.0014 31.6698 39.9349C31.2711 39.8685 30.8724 39.8685 30.8059 39.9349C30.7395 40.0014 30.9388 40.0678 31.2046 40.2007C31.404 40.3336 31.6698 40.4665 31.6033 40.4665C31.1382 40.6658 30.7395 40.8652 30.4073 41.131C30.075 41.3968 29.8092 41.6626 29.6763 41.8619C29.2777 42.3935 29.1448 42.7257 29.1448 42.7257C29.1448 42.7257 29.0119 42.6593 28.8125 42.3935C28.6132 42.1277 28.3474 41.6626 28.2809 40.9316C28.2145 40.2007 28.4138 39.1376 29.0119 38.1408C29.6099 37.0777 30.5402 36.081 31.8691 35.2172C32.002 35.1507 31.7362 35.7487 31.5369 36.4132C31.3375 37.0777 31.2046 37.6757 31.3375 37.6093C31.4704 37.5428 31.8027 36.679 32.2678 35.9481C32.7329 35.1507 33.3309 34.4198 33.4638 34.3534C33.7961 34.154 34.1948 34.0211 34.5934 33.8882C34.7263 33.8218 34.3276 34.4198 33.9954 35.0843C33.6632 35.6823 33.3974 36.3468 33.5303 36.2803C33.5967 36.2139 34.1283 35.483 34.7263 34.8185C35.3244 34.0876 35.9888 33.4231 36.0553 33.4231L36.3875 33.3567C36.9191 33.2238 37.4507 33.1573 37.9158 33.0909C38.1151 33.0909 37.7165 33.556 37.3842 34.0876C37.052 34.6191 36.7197 35.0843 36.8526 35.0843C36.9855 35.0843 37.5836 34.4863 38.1816 34.0211C38.8461 33.4895 39.5105 33.0244 39.6434 33.0244C40.4408 33.0244 41.1053 33.1573 41.7697 33.2902C41.9026 33.2902 41.7033 33.556 41.5039 33.8218C41.3046 34.0876 41.1053 34.3534 41.2382 34.3534C41.3711 34.3534 41.7697 34.154 42.1684 34.0211C42.6336 33.8218 43.0322 33.6889 43.1651 33.6889C43.6303 33.8882 44.0289 34.0211 44.3612 34.2869C44.4941 34.3534 44.1618 34.5527 43.8296 34.752C43.5638 34.9514 43.2316 35.1507 43.3645 35.2172C43.4974 35.2836 44.0289 35.2172 44.4941 35.2172C45.0257 35.2172 45.5572 35.2172 45.6237 35.3501C46.1553 35.9481 46.2217 36.3468 46.2217 36.3468C46.2217 36.3468 45.823 36.4132 45.225 36.6126C45.1585 36.6126 44.7599 36.4132 44.3612 36.2139C43.9625 36.0145 43.4974 35.8816 43.3645 35.8816C43.298 35.8816 43.6303 36.1474 43.8961 36.4132C44.1618 36.679 44.4276 36.9448 44.3612 36.9448L43.0322 37.4099C42.9658 37.4099 42.5007 37.0777 42.0355 36.8119C41.5039 36.4797 40.9724 36.2139 40.9059 36.2803C40.8395 36.3468 41.1717 36.679 41.5039 37.0112C41.8362 37.3435 42.102 37.7422 42.0355 37.8086L41.5704 37.9415C41.504 37.9415 40.9059 37.6093 40.3079 37.277C39.7099 36.9448 39.1118 36.7455 39.1783 36.8119C39.6434 37.6757 40.7066 38.1409 40.5737 38.2073C39.9092 38.4066 39.1783 38.606 38.3809 38.8053C38.248 38.8053 37.9158 38.5395 37.5171 38.2737C37.1849 37.5428 36.7862 37.277 36.6533 37.3435Z" fill="#513684"/>
<path d="M17.9152 31.496C18.0481 31.496 17.8487 31.0973 17.7158 30.7651C17.5829 30.3664 17.3836 30.0342 17.5165 30.0342C18.6461 30.1006 19.7757 30.2335 20.9053 30.6987C21.5698 30.9644 22.3671 31.7618 22.8323 32.5592C23.3638 33.3565 23.6296 34.021 23.6296 33.8881C23.829 33.3565 23.6296 32.6921 23.4303 32.2269C23.1645 31.7618 22.8987 31.496 23.1645 31.6289C24.6928 32.4263 25.9553 33.4894 26.8191 34.619C26.952 34.7519 27.1513 35.35 27.2178 35.948C27.3507 36.546 27.3507 37.144 27.4171 37.2769C27.4836 37.4763 27.6165 37.2105 27.7494 36.9447C27.8822 36.6789 27.9487 36.4131 28.0816 36.6125C28.5467 37.6756 28.7461 38.6723 28.879 39.4697C28.9454 40.2671 28.9454 40.9315 28.879 41.4631C28.7461 42.4598 28.5467 42.9249 28.5467 42.9249C28.5467 42.9249 28.4138 42.792 28.2145 42.3934C28.0151 42.0611 27.6829 41.5296 27.1513 40.8651C26.2211 39.5361 24.6928 37.6756 21.902 36.6125C21.7691 36.546 22.4336 36.4131 23.098 36.2802C23.829 36.2138 24.5599 36.2802 24.427 36.1473C24.2941 36.0144 23.2309 35.8151 22.2342 35.8151C21.2375 35.8151 20.3073 36.0144 20.1079 36.0144C19.7092 35.948 19.3106 35.8815 18.8454 35.8151C18.6461 35.8151 19.3106 35.4164 20.1079 35.1506C20.8388 34.8848 21.6362 34.6855 21.4369 34.619C21.304 34.5526 20.2408 34.6855 19.2441 34.9513C18.2474 35.2171 17.3171 35.6822 17.1842 35.6822H16.7856C16.1875 35.6822 15.5895 35.6822 14.9915 35.6822C14.7921 35.6822 15.2573 35.2171 15.7889 34.7519C16.3204 34.2868 16.9185 33.8881 16.7191 33.8881C16.5198 33.8881 15.5895 34.2868 14.7257 34.7519C13.8619 35.2171 13.0645 35.8151 12.9316 35.8151C12.0014 35.8815 11.204 36.0144 10.4066 36.1473C10.2073 36.1473 10.3402 35.8815 10.5395 35.5493C10.6724 35.2171 10.8718 34.8848 10.7389 34.9513C10.606 34.9513 10.1408 35.35 9.67571 35.6822C9.21058 36.0809 8.81189 36.4796 8.679 36.4796C8.14742 36.6125 7.61584 36.6789 7.15071 36.8118C7.01782 36.8782 7.15071 36.4796 7.35005 36.0809C7.54939 35.6822 7.81518 35.35 7.68229 35.35C7.48295 35.35 6.88492 35.8151 6.35334 36.2802C5.82177 36.7453 5.35664 37.2105 5.22374 37.2769C4.29348 37.4763 3.7619 37.6092 3.7619 37.6092C3.7619 37.6092 3.8948 37.144 4.35993 36.2802C4.42637 36.0809 5.09085 35.7486 5.75532 35.4164C6.41979 35.0842 7.15071 34.8848 7.21716 34.7519C7.28361 34.6855 6.75203 34.7519 6.22045 34.8184C5.68887 34.9513 5.09085 35.0842 5.15729 35.0177C5.55598 34.4861 6.154 33.8881 6.88492 33.2901C7.01782 33.2236 7.94808 33.0908 8.81189 33.0908C9.74215 33.0908 10.606 33.1572 10.7389 33.0908C10.8718 33.0243 10.2737 32.825 9.67571 32.6256C9.07768 32.4263 8.41321 32.2934 8.5461 32.2269C8.81189 32.094 9.01123 31.9611 9.27702 31.8283C9.40992 31.7618 10.5395 31.7618 11.5362 31.8947C12.5329 32.0276 13.4632 32.2269 13.3968 32.1605C13.0645 31.7618 12.4 31.496 11.8685 31.2967C11.3369 31.1638 10.8718 31.0973 11.0047 31.0309C12.2671 30.5658 13.6625 30.2335 15.2573 30.1006C15.5231 30.1006 16.1211 30.4329 16.6527 30.7651C17.1842 31.0973 17.6494 31.496 17.9152 31.496Z" fill="#513684"/>
<path d="M59.046 14.4192C59.1789 14.4192 58.9131 13.954 58.5809 13.4889C58.2486 13.0238 57.9164 12.6251 58.0493 12.5587C59.7105 12.3593 61.3717 12.2264 63.0993 12.4258C63.6309 12.4922 64.2289 12.6915 64.8269 13.0238C65.1591 13.1567 65.4249 13.356 65.7572 13.5554C66.023 13.7547 66.2887 13.954 66.5545 14.1534C67.5512 14.9508 68.2822 15.6817 68.2822 15.4823C68.2822 13.8876 65.9565 12.6915 66.621 12.8244C68.8802 13.2896 70.9401 13.8876 72.6677 14.5521C72.9335 14.6185 73.5315 15.2165 74.1295 15.8146C74.7276 16.4126 75.2591 17.0771 75.4585 17.1435C75.7243 17.2764 75.6578 16.8777 75.5914 16.5455C75.5249 16.1468 75.392 15.8146 75.6578 15.9475C77.1196 16.7448 78.3157 17.6751 79.1795 18.5389C80.0433 19.4027 80.6413 20.333 80.9736 21.0639C81.3058 21.7948 81.4387 22.3928 81.5052 22.7251C81.5716 23.1238 81.5716 23.2567 81.5716 23.2567C81.5716 23.2567 81.3058 23.0573 80.8407 22.7251C80.3756 22.3928 79.5782 21.9277 78.515 21.4626C77.3854 21.0639 75.99 20.6652 74.1295 20.333C72.269 20.0007 69.9433 19.8014 67.1526 19.6021C66.8868 19.6021 67.8835 19.1369 68.8802 18.6718C69.8769 18.2731 70.9401 17.8744 70.6743 17.808C70.342 17.7415 68.7473 18.0738 67.0861 18.4725L65.8901 18.8047C65.4914 18.9376 65.1591 19.004 64.8269 19.0705C64.2289 19.2698 63.8302 19.4027 63.6973 19.4027C63.0328 19.4027 62.3019 19.4027 61.6374 19.4692C61.3717 19.4692 62.3019 18.8047 63.3651 18.2731C64.4282 17.6751 65.5578 17.21 65.2256 17.21C65.0263 17.21 63.4315 17.6751 61.9032 18.3396C60.3749 19.004 59.046 19.8014 58.9131 19.8014L58.3151 19.8678C57.3184 20.0007 56.4546 20.2001 55.5907 20.3994C55.2585 20.4659 55.923 19.735 56.5875 19.004C57.3184 18.2731 58.1157 17.5422 57.7835 17.6086C57.5177 17.6086 56.1223 18.406 54.9263 19.3363C53.7302 20.2001 52.6671 21.1968 52.4677 21.3297C51.1388 21.7284 50.0092 22.1935 49.0125 22.6586C48.8131 22.7915 48.8796 22.2599 49.0125 21.7948C49.1454 21.3297 49.2783 20.7981 49.0789 20.931C48.8796 20.9975 48.2815 21.6619 47.8164 22.3928C47.3513 23.1238 46.9526 23.7882 46.8197 23.9211C46.1552 24.3198 45.5572 24.7849 45.0256 25.1836C44.8927 25.3165 44.8927 24.7185 44.9592 24.1205C45.0256 23.5224 45.225 22.858 45.0256 22.9909C44.7598 23.1902 44.1618 24.054 43.7631 25.0507C43.3645 25.981 43.1651 26.9777 42.9658 27.177C42.0355 28.2402 41.6368 28.9047 41.6368 28.8382C41.6368 28.8382 41.371 28.1738 41.371 26.6455C41.371 26.4461 41.9026 25.383 42.6335 24.5192C43.3645 23.5889 44.2283 22.858 44.2947 22.5922C44.3612 22.4593 43.6302 22.858 42.9658 23.3896C42.3013 23.9211 41.6368 24.5192 41.7033 24.3198C41.9691 23.2567 42.4342 22.0606 43.298 20.7317C43.4309 20.5323 44.6934 19.8014 46.0223 19.3363C47.3513 18.8711 48.6802 18.6054 48.8131 18.4725C49.0125 18.3396 48.0822 18.2731 47.0855 18.2731C46.0888 18.2731 45.0921 18.4725 45.2914 18.2731C45.6237 17.9409 45.9559 17.6751 46.2881 17.3429C46.3546 17.2764 46.8862 17.0771 47.4842 16.9442C48.1487 16.8113 48.946 16.6119 49.6769 16.5455C51.2052 16.3461 52.6006 16.3461 52.4677 16.2797C51.9361 15.8146 50.873 15.6817 50.0092 15.6817C49.1454 15.6817 48.4144 15.8146 48.6138 15.6817C50.3414 14.6185 52.4677 13.6883 54.7934 13.0902C55.1921 13.0238 56.1223 13.2896 56.9861 13.6218C57.7835 14.0869 58.6473 14.4856 59.046 14.4192Z" fill="#513684"/>
<path d="M67.5513 33.0905C67.6177 33.0241 67.0862 32.8912 66.5546 32.8247C66.023 32.7583 65.4914 32.6918 65.5579 32.6254C66.0895 31.6287 66.6875 30.632 67.4848 29.7017C67.95 29.1701 69.146 28.7714 70.1427 28.5721C71.1394 28.3727 72.0033 28.3063 71.8704 28.2399C71.2059 27.7747 70.4085 27.7747 69.8769 27.8412C69.2789 27.9076 68.9467 28.0405 69.146 27.9076C70.3421 26.6451 71.5381 25.6484 72.7342 24.9175C72.8671 24.7846 73.598 24.7182 74.2625 24.7182C74.9269 24.6517 75.5914 24.7182 75.7243 24.6517C75.9236 24.5853 75.5914 24.3859 75.2592 24.1866C74.9269 23.9872 74.5947 23.8543 74.794 23.7879C76.9868 22.7912 78.7144 22.5918 79.844 22.5254C80.9736 22.5254 81.5052 22.6583 81.5052 22.6583C81.5052 22.6583 80.9736 23.4557 79.7776 24.851C78.648 26.2464 76.9204 28.3063 74.9269 31.4293C74.8605 31.5622 74.7276 30.7648 74.7276 29.8346C74.7276 28.9708 74.794 28.0405 74.6611 28.2399C74.5282 28.3727 74.196 29.6352 74.0631 30.8313C73.8638 32.0273 73.8638 33.2234 73.7309 33.3563C73.4651 33.8214 73.2658 34.2201 73 34.6852C72.9335 34.8846 72.7342 33.9543 72.6677 33.0241C72.5348 32.0938 72.5348 31.0971 72.4019 31.2964C72.3355 31.4293 72.1362 32.6918 72.1362 33.8879C72.0697 35.1504 72.1362 36.3464 72.1362 36.4129L71.9368 36.8115L71.0065 38.6056C70.8737 38.805 70.6079 38.074 70.4085 37.2767C70.1427 36.4793 69.9434 35.6819 69.8105 35.8813C69.7441 36.0142 69.6776 37.2102 69.8105 38.3398C69.8769 39.4694 70.0098 40.599 69.9434 40.7319C69.4783 41.6622 69.0131 42.4596 68.548 43.2569C68.4816 43.4563 68.2158 43.0576 67.95 42.7254C67.6842 42.3267 67.4848 41.9944 67.3519 42.1273C67.2855 42.2602 67.352 42.9247 67.4184 43.5892C67.4848 44.2536 67.6177 44.9181 67.5513 44.9846C67.2191 45.5161 66.8868 46.0477 66.621 46.5128C66.5546 46.6457 66.2888 46.2471 66.0895 45.7819C65.8901 45.3168 65.6908 44.8517 65.5579 44.9846C65.425 45.1839 65.3585 45.9813 65.425 46.7122C65.425 47.4431 65.4914 48.2405 65.3585 48.3734C64.7605 49.2372 64.3618 49.7023 64.3618 49.7023C64.3618 49.7023 64.0296 49.2372 63.6973 48.174C63.6309 48.0411 63.8967 47.3102 64.2289 46.5793C64.4947 45.8484 64.827 45.1175 64.827 44.9181C64.827 44.7852 64.4283 45.2503 64.0296 45.7819C63.6309 46.2471 63.2987 46.7786 63.2987 46.6457C63.1658 45.9148 63.0329 45.051 62.9664 44.0543C62.9664 43.9214 63.5645 43.124 64.2289 42.3931C64.8934 41.6622 65.5579 40.9313 65.5579 40.7984C65.5579 40.599 64.8934 40.9977 64.2954 41.3964C63.6309 41.7951 63.0329 42.1938 63.0329 41.9944C63.0329 41.7286 63.0993 41.3964 63.0993 41.1306C63.0993 40.9313 63.8967 40.0675 64.6941 39.3365C65.4914 38.5392 66.2888 37.8747 66.0895 37.8747C65.425 37.8747 64.7605 38.2734 64.2289 38.6721C63.6974 39.0708 63.3651 39.403 63.3651 39.2701C63.6309 37.9412 64.096 36.4793 64.7605 34.951C64.8934 34.6852 65.5579 34.4194 66.2223 34.0872C66.7539 33.5556 67.4184 33.3563 67.5513 33.0905Z" fill="#513684"/>
<path d="M64.4947 22.8579C64.5611 22.7915 64.2289 22.4592 63.8967 22.0605C63.5644 21.6618 63.2322 21.2632 63.2986 21.2632C64.3618 20.8645 65.4249 20.4658 66.4881 20.3329C67.1526 20.2665 68.2822 20.6651 69.146 21.1303C70.0098 21.5954 70.6743 22.0605 70.6743 21.9276C70.2091 20.3994 68.3486 20.0007 68.8138 19.9342C70.4085 19.7349 71.8703 19.6684 73.1328 19.7349C73.3322 19.7349 73.8637 20.0671 74.3953 20.3994C74.9269 20.7316 75.4585 21.0638 75.6578 21.1303C76.0565 21.1967 74.9933 19.8678 75.3256 19.9342C77.5183 20.2 79.0466 20.7316 80.0433 21.1303C81.04 21.529 81.5052 21.8612 81.5052 21.8612C81.5052 21.8612 80.7743 22.3928 79.1131 23.1901C77.4519 23.9875 74.8604 24.9842 71.2723 26.2467C71.073 26.3132 71.5381 25.5822 72.0697 24.8513C72.6012 24.1204 73.1328 23.4559 72.9335 23.5224C72.7341 23.5888 71.8039 24.3862 70.9401 25.25C70.0762 26.1138 69.2789 26.9776 69.0795 27.0441L67.6841 27.5757C67.4848 27.6421 67.9499 26.8447 68.4815 26.0474C69.0131 25.25 69.6111 24.4526 69.3453 24.5191C69.2124 24.5855 68.2822 25.4493 67.4848 26.3796C66.6874 27.3099 65.9565 28.2401 65.8236 28.3066L65.4249 28.4395L63.6973 29.1039C63.498 29.1704 63.6973 28.4395 64.0295 27.7085C64.2953 26.9776 64.694 26.1803 64.4947 26.2467C64.2953 26.3132 63.5644 27.177 62.9664 28.1072C62.3684 29.0375 61.9032 29.9013 61.7703 29.9678C60.9065 30.3664 60.1756 30.6987 59.5111 31.0309C59.3782 31.0974 59.3118 30.6987 59.2453 30.3C59.2453 29.9013 59.2453 29.4362 59.046 29.5026C58.9131 29.5691 58.6473 30.1006 58.3815 30.6987C58.1822 31.2303 58.0493 31.8283 57.9164 31.8947C57.4513 32.1605 56.9861 32.4263 56.5875 32.6921C56.4546 32.7585 56.3881 32.3599 56.3217 31.8947C56.2552 31.4296 56.2552 30.9645 56.1888 31.0309C55.9894 31.1638 55.6572 31.8283 55.4579 32.4927C55.2585 33.1572 55.1256 33.8217 54.9927 33.9546C54.1954 34.6191 53.7302 34.9513 53.7302 34.9513C53.7302 34.9513 53.4644 34.4197 53.3315 33.3566C53.3315 33.2237 53.7302 32.4928 54.3283 31.8947C54.8598 31.2967 55.4579 30.7651 55.4579 30.5658C55.4579 30.4329 54.9263 30.6987 54.3947 31.0309C53.8631 31.3631 53.3315 31.7618 53.3315 31.6289C53.398 30.8316 53.6638 29.9678 54.1289 28.971C54.1954 28.8382 55.1256 28.3066 56.1223 27.9743C57.0526 27.6421 58.0493 27.4428 58.1157 27.3099C58.2486 27.177 57.4513 27.1105 56.7204 27.1105C55.923 27.1105 55.1256 27.177 55.2585 26.9776C55.4579 26.7118 55.6572 26.4461 55.8565 26.2467C55.9894 26.1138 57.1855 25.7816 58.3151 25.5822C59.4447 25.3829 60.4414 25.3829 60.3085 25.25C59.7769 24.8513 58.9796 24.7184 58.3151 24.7184C57.6506 24.7184 57.119 24.7849 57.2519 24.7184C58.3151 23.7217 59.644 22.8579 61.1059 22.127C61.3717 21.9941 62.1026 22.1934 62.7671 22.4592C63.5644 22.6586 64.2289 22.9243 64.4947 22.8579Z" fill="#513684"/>
<path d="M85.1598 35.7487C85.1598 35.6158 83.2992 36.546 83.2992 36.3467C83.2328 35.5493 83.0334 34.6855 83.0999 33.8882C83.0999 33.423 83.6979 32.5592 84.2295 31.8947C84.7611 31.1638 85.2262 30.5658 85.0933 30.6322C83.565 31.1638 83.0335 32.5592 83.0335 32.227L82.8341 29.0375C82.8341 28.9046 83.0999 28.4395 83.3657 27.9079C83.6315 27.4428 83.8308 26.9112 83.8308 26.7783C83.7644 26.4461 82.7677 27.6421 82.7677 27.3763C82.6348 25.7151 82.5683 24.3862 82.5019 23.4559C82.4354 22.5257 82.4354 22.0605 82.4354 22.0605C82.4354 22.0605 83.2992 22.1934 84.7611 23.1901C85.492 23.7217 86.2894 24.4526 87.1532 25.5823C88.017 26.7119 88.8144 28.1737 89.4788 29.9678C89.5453 30.1671 88.8144 29.6355 88.0834 29.2368C87.3525 28.7717 86.6216 28.373 86.688 28.5724C86.7545 28.7717 87.6183 29.5026 88.4821 30.3665C89.3459 31.1638 90.1433 32.0941 90.2098 32.2934C90.3426 32.7586 90.4755 33.2901 90.542 33.7553C90.6084 33.9546 89.8775 33.3566 89.1466 32.7586C88.4157 32.1605 87.6848 31.6289 87.7512 31.8283C87.7512 31.9612 88.615 32.825 89.3459 33.6888C90.1433 34.6191 90.8742 35.5493 90.8742 35.6822L90.9407 36.1474C91.0071 36.8118 91.0736 37.4763 91.0736 38.1408C91.0736 38.3401 90.4755 37.875 89.8775 37.3434C89.2795 36.8118 88.615 36.3467 88.615 36.546C88.615 36.6789 89.213 37.6092 89.8775 38.473C90.4755 39.3368 91.0736 40.2006 91.0736 40.4C91.0071 41.3302 90.8742 42.1941 90.7413 42.9914C90.6749 43.3237 89.3459 42.1276 89.2795 42.3934C89.213 42.6592 90.4091 44.4533 90.3426 44.7191C90.2098 45.2506 90.0104 45.7822 89.8775 46.2473C89.7446 46.5131 88.5486 45.0513 88.4821 45.2506C88.4157 45.45 88.615 46.1144 88.8144 46.7125C89.0137 47.3105 89.213 47.9085 89.1466 48.1079C88.7479 48.9717 88.4157 49.4368 88.4157 49.4368C88.4157 49.4368 88.017 49.1046 87.419 48.3737C87.3525 48.3072 87.419 47.6427 87.5519 46.9783C87.6183 46.3138 87.7512 45.6493 87.6848 45.5164C87.5519 45.3835 86.7545 47.4434 86.688 47.2441C86.3558 46.7125 86.0236 46.048 85.6913 45.3171C85.5584 45.0513 87.1532 42.327 87.0203 42.0612C86.8874 41.7954 85.1598 44.0546 85.0269 43.7223C84.9604 43.523 84.894 43.2572 84.8275 43.0579C84.7611 42.7921 86.6216 39.5362 86.3558 39.6691C85.1598 40.2006 84.4953 41.7954 84.4288 41.596C84.1631 40.5993 83.9637 39.4697 83.7644 38.2072C83.4321 37.7421 85.1598 36.2138 85.1598 35.7487Z" fill="#513684"/>
<path d="M102.17 20.3994C102.037 20.3994 102.237 20.8645 102.37 21.3961C102.502 21.9277 102.702 22.3928 102.569 22.3928C101.373 22.2599 100.177 22.1935 99.0472 22.0606C98.3163 21.9941 97.2532 21.2632 96.3229 20.7316L95.6584 20.333C95.4591 20.2001 95.2597 20.1336 95.0604 20.0007C94.7282 19.8014 94.5288 19.7349 94.5288 19.8014C94.6617 20.2001 94.8611 20.5323 95.1269 20.7981C95.2597 20.931 95.3926 21.0639 95.5255 21.1303C95.6584 21.2632 95.7913 21.3297 95.9242 21.3961C96.3893 21.7283 96.7216 21.9277 96.5222 21.9277H95.8578H95.1269C94.6617 21.9277 94.1966 21.9277 93.7315 21.9277L91.2729 21.8612C91.0736 21.8612 90.4091 21.529 89.7446 21.2632C89.0801 20.931 88.4157 20.6652 88.2163 20.6652C87.9506 20.6652 88.2163 20.931 88.4157 21.2632C88.615 21.529 88.8808 21.8612 88.6815 21.8612C86.1565 21.8612 84.4288 22.0606 83.2992 22.4593C82.1696 22.8579 81.6381 23.3231 81.6381 23.2566C81.6381 23.2566 81.6381 22.9908 81.771 22.3928C81.9039 21.7948 82.369 20.931 83.3657 19.9343C84.3624 19.004 85.8242 18.0073 87.6848 17.2764C88.615 16.8777 89.6782 16.5455 90.8742 16.2797C92.0038 15.9474 93.2663 15.7481 94.5288 15.4823C94.7946 15.4159 94.0637 16.1468 93.1999 16.8112C92.4025 17.4757 91.5387 18.2066 91.8045 18.1402C91.9374 18.1402 92.3361 17.8744 92.8677 17.6086C93.3992 17.2764 94.0637 16.9441 94.7282 16.5455C96.1236 15.7481 97.7183 15.0172 97.9841 15.0172C98.7815 14.9507 99.5788 14.8843 100.376 14.8843C100.708 14.8843 99.5788 15.4823 98.5157 16.0803C97.4525 16.7448 96.4558 17.4093 96.788 17.4093C96.9874 17.4093 98.4492 16.6784 100.044 16.0803C101.639 15.4823 103.3 15.0172 103.499 15.0836L104.23 15.1501C105.293 15.283 106.356 15.4823 107.353 15.7481C107.685 15.8145 106.689 16.2132 105.692 16.6119C104.695 17.0106 103.765 17.4757 104.097 17.5422C104.363 17.6086 105.825 17.2764 107.353 17.077C108.881 16.8777 110.476 16.8112 110.676 16.8777C112.071 17.4093 113.333 18.0737 114.397 18.6718C114.862 18.9376 112.47 19.4027 112.935 19.6685C113.134 19.8014 113.998 19.8014 114.862 19.8678C115.725 19.9343 116.589 20.0007 116.789 20.1336C117.52 20.5987 118.118 21.1303 118.649 21.529C118.981 21.7948 116.257 21.8612 116.589 22.127C117.054 22.5257 120.443 23.1237 120.775 23.456C121.706 24.3862 122.104 24.9843 122.104 24.9843C122.104 24.9843 121.44 25.0507 120.111 25.0507C119.779 25.0507 116.789 22.9244 116.39 22.9244C116.124 22.9244 118.516 24.9843 118.184 24.9843C117.32 24.9178 116.324 24.7849 115.127 24.652C114.928 24.652 114.131 23.8547 113.267 23.0573C112.403 22.2599 111.539 21.529 111.34 21.529C111.141 21.529 111.606 22.1935 112.071 22.8579C112.536 23.5224 113.001 24.2533 112.735 24.1869L111.739 23.9875C111.539 23.9211 110.543 23.0573 109.612 22.2599C108.616 21.4626 107.685 20.7316 107.685 20.931C107.818 21.5954 108.416 22.2599 108.881 22.7915C109.347 23.3231 109.745 23.6553 109.612 23.6553C108.151 23.3895 106.556 23.0573 104.828 22.7915C104.562 22.7251 104.031 22.1935 103.499 21.5954C103.101 20.9974 102.502 20.3994 102.17 20.3994Z" fill="#513684"/>
<path d="M93.9973 10.2991C93.7979 10.432 95.7249 11.4952 95.5256 11.5616C94.6618 12.1596 93.7979 12.8241 92.8677 13.3557C92.3361 13.6879 91.2065 13.6879 90.2098 13.7544C90.0769 13.7544 89.944 13.8208 89.8111 13.8208H89.4789L88.8808 13.8873C88.5486 13.8873 88.3493 13.9537 88.4157 14.0202C89.0802 14.4853 89.8111 14.6182 90.4091 14.6182C90.6749 14.6182 91.0072 14.5517 91.1401 14.5517C91.2729 14.5517 91.3394 14.5517 91.2065 14.6182L87.6848 17.3425C87.5519 17.4754 86.8874 17.5419 86.2894 17.7412C85.6249 17.8741 85.0269 18.0734 84.894 18.2063C84.7611 18.3392 85.0934 18.4057 85.4256 18.4721C85.7578 18.5386 86.1565 18.605 85.9572 18.7379C84.296 20.1333 83.0999 21.2629 82.369 22.1267C81.6381 22.9905 81.2394 23.4557 81.2394 23.4557C81.2394 23.4557 81.1065 23.2563 81.0401 22.7247C80.9072 22.1932 80.8407 21.3958 80.9736 20.2662C81.1065 19.1366 81.5052 17.6748 82.2361 16.0136C83.0335 14.3524 84.1631 12.5583 85.7578 10.6314C85.8907 10.432 85.7578 11.4287 85.6249 12.4254C85.492 13.4221 85.4256 14.4188 85.5585 14.2195C85.6914 14.0202 86.0901 12.6248 86.5552 11.2958C86.6881 10.9636 86.821 10.5649 86.8874 10.2991C87.0203 9.96688 87.1532 9.63464 87.2861 9.36885C87.5519 8.83727 87.7512 8.43859 87.8177 8.3057C88.3493 7.84057 88.8144 7.37544 89.346 6.91031C89.5453 6.71096 89.1466 7.77412 88.8144 8.90372C88.4822 9.96688 88.2164 11.0965 88.4157 10.8971C88.5486 10.7642 89.0802 9.4353 89.8111 8.03991C90.4756 6.71096 91.2729 5.38202 91.4058 5.31557L91.9374 4.98333C92.7348 4.45176 93.5321 3.98663 94.2631 3.58794C94.5289 3.45505 94.1302 4.31886 93.7979 5.18268C93.4657 6.04649 93.1335 6.97675 93.3328 6.84386C93.5322 6.71096 94.2631 5.58136 95.1269 4.5182C95.9907 3.45505 96.921 2.39189 97.1203 2.259C98.3828 1.79387 99.6453 1.46163 100.841 1.26229C101.107 1.19584 100.841 1.66097 100.642 2.1261C100.443 2.59123 100.177 2.98992 100.443 2.98992C100.642 2.98992 101.24 2.45834 101.971 1.99321C102.635 1.52808 103.433 1.12939 103.566 1.12939C104.429 1.12939 105.227 1.26229 105.958 1.39518C106.157 1.46163 105.626 1.79387 105.227 2.1261C104.762 2.45834 104.363 2.85702 104.496 2.92347C104.762 2.98992 105.626 2.65768 106.556 2.52479C107.486 2.39189 108.416 2.39189 108.616 2.52479C109.147 2.92347 109.479 3.32215 109.679 3.58794C109.878 3.85373 109.945 3.98663 109.945 3.98663C109.945 3.98663 109.28 3.98663 108.283 4.25241C108.151 4.25241 107.486 3.92018 106.689 3.78728C105.891 3.58794 105.028 3.58794 104.828 3.72084C104.762 3.78728 105.36 3.92018 105.891 4.18597C106.489 4.38531 106.955 4.71755 106.822 4.78399C106.224 5.04978 105.493 5.38202 104.762 5.84715C104.629 5.9136 103.765 5.64781 102.768 5.58136C101.772 5.44847 100.775 5.44846 100.642 5.51491C100.509 5.64781 101.24 5.84715 101.905 6.11294C102.635 6.37873 103.233 6.71096 103.101 6.77741L102.436 7.17609C102.303 7.24254 101.174 7.10965 100.11 7.10965C98.9808 7.10965 97.9177 7.17609 98.0506 7.24254C98.5821 7.64122 99.3795 7.77412 99.9775 7.90701C100.576 7.97346 101.041 8.03991 100.908 8.10635L97.3861 10.3656C97.1867 10.4985 96.4558 10.3656 95.7249 10.2991C94.9275 10.1662 94.1966 10.0998 93.9973 10.2991Z" fill="#513684"/>
<path d="M71.8039 4.45196C71.9368 4.51841 72.0032 3.98683 72.0696 3.45526C72.1361 2.92368 72.1361 2.3921 72.269 2.45855C73.465 3.18947 74.6611 3.98683 75.5913 5.04999C75.8571 5.38223 76.1229 5.84736 76.3223 6.44538C76.3887 6.71117 76.4552 7.04341 76.5216 7.3092C76.5881 7.57498 76.5881 7.90722 76.6545 8.17301C76.8538 9.30261 76.7874 10.2329 76.8538 10.1C77.4519 9.50195 77.5183 8.70459 77.5183 8.04012C77.4519 7.37564 77.319 6.97696 77.5183 7.1763C78.1828 7.97367 78.7144 8.90393 79.1795 9.7013C79.6446 10.5651 79.9769 11.3625 80.1762 12.0934C80.2427 12.2927 80.1762 13.0237 80.0433 13.7546C79.9104 14.4855 79.7775 15.15 79.7775 15.3493C79.844 15.8144 80.7742 14.2862 80.8407 14.6848C81.1065 15.9473 81.1729 17.0105 81.2394 17.9408C81.3058 18.871 81.3058 19.6019 81.3058 20.2C81.3058 21.396 81.3058 21.994 81.3058 21.994C81.3058 21.994 80.3755 21.4625 78.9802 19.8013C78.2492 18.9375 77.4519 17.8079 76.5216 16.4789C75.5913 15.15 74.5282 13.6881 73.1992 12.4256C73.0664 12.2927 73.9302 12.3592 74.794 12.625C75.6578 12.8243 76.5881 13.223 76.4552 13.0237C76.3223 12.8243 75.1262 12.0934 73.9302 11.6947C73.6644 11.5618 73.3321 11.4954 73.0664 11.4289C72.8006 11.3625 72.4683 11.2296 72.269 11.1631C71.8039 11.0302 71.4716 10.9638 71.3387 10.8973C70.94 10.5651 70.4749 10.2329 70.0762 9.96708C69.8769 9.83419 70.8736 9.76774 71.8703 9.83419C72.867 9.90064 73.9302 10.1 73.7308 9.90064C73.5979 9.76774 72.269 9.36906 71.0065 9.16972C69.6775 8.97038 68.4815 8.97038 68.3486 8.90393L67.9499 8.70459C67.2854 8.37235 66.6874 8.04012 66.0894 7.77433C65.8901 7.70788 66.621 7.37564 67.4848 7.10985C68.2822 6.84407 69.2124 6.71117 69.0131 6.57828C68.8137 6.44538 67.5512 6.37893 66.3552 6.51183C65.1591 6.64472 64.0295 6.91051 63.8302 6.84407C62.8335 6.44538 61.8368 6.11315 60.973 5.84736C60.7736 5.78091 61.1059 5.44867 61.4381 5.18288C61.7703 4.85065 62.169 4.58486 61.9697 4.51841C61.8368 4.45196 61.1058 4.65131 60.3749 4.85065C59.7105 5.04999 59.046 5.31578 58.8466 5.24933L56.9861 4.71775C56.7868 4.65131 57.1855 4.31907 57.6506 3.98683C58.0493 3.6546 58.5144 3.32236 58.3815 3.32236C58.1157 3.25591 57.2519 3.38881 56.4545 3.6546C55.6572 3.85394 54.8598 4.18618 54.6605 4.11973C53.5309 3.78749 52.8664 3.58815 52.9328 3.58815C52.9328 3.58815 53.3315 3.12302 54.3282 2.3921C54.4611 2.32565 55.3914 2.32565 56.2552 2.3921C57.1855 2.45855 58.0493 2.59144 58.2486 2.52499C58.3815 2.45855 57.717 2.19276 57.0526 1.99342C56.3881 1.79408 55.7236 1.59473 55.8565 1.52829C56.5874 1.1296 57.5177 0.797367 58.6473 0.465131C58.8466 0.398683 59.9098 0.797367 60.9065 1.32894C61.9032 1.79408 62.8335 2.3921 63.0328 2.3921C63.2322 2.3921 62.7006 1.79408 62.1026 1.19605C61.5045 0.598025 60.8401 0.0664472 61.1059 0.0664472C61.4381 4.9507e-09 61.7703 0 62.169 0C62.3683 0 63.6308 0.664472 64.6276 1.39539C65.6907 2.12631 66.5545 2.85723 66.5545 2.72434C66.4216 2.05986 65.89 1.32894 65.292 0.863814C64.7604 0.398683 64.2289 0.0664472 64.4282 0.0664472C66.0894 0.199342 67.8835 0.598025 69.744 1.32894C70.0762 1.46184 70.4749 2.19276 70.8736 2.92368C71.2058 3.5217 71.5381 4.31907 71.8039 4.45196Z" fill="#513684"/>
<path d="M46.2881 124.06C47.152 124.127 46.9526 124.393 47.8164 124.393C49.0125 122 50.1421 117.548 56.0559 114.691C53.5973 116.884 53.1322 115.754 49.1454 125.921C50.4743 124.326 52.0691 123.529 52.6006 122.067C52.8 124.393 51.2717 126.519 50.4743 127.449C52.6671 126.519 54.7269 125.057 54.9263 123.728C55.5243 125.854 53.6638 127.117 53.4644 128.114C57.1855 128.446 66.2888 126.452 72.9999 127.648C79.7111 128.845 79.246 128.845 81.6381 128.778C84.0966 128.712 94.2631 131.306 79.7111 131.439C65.1592 131.572 52.9329 130.306 50.4743 130.705C43.0322 131.901 43.4974 130.639 33.2645 130.705C23.0316 130.838 3.12244 131.766 0.597443 131.5C-1.994 131.234 4.49283 127.848 7.68229 127.516C10.8053 127.183 14.2606 127.648 19.6428 125.854C25.025 124.127 27.4836 124.525 29.0783 124.459C28.6796 123.861 28.4803 121.602 29.477 120.804C29.3441 121.402 29.2112 122.731 30.673 124.459C32.002 124.193 32.1349 123.994 33.7296 123.861C33.7296 122.133 32.1349 120.871 28.7461 118.612C32.9987 119.21 34.1947 121.934 35.5237 123.462C34.1947 119.077 30.9388 116.685 27.7494 114.16C32.1349 115.422 35.7895 119.675 37.1184 123.13L46.2881 124.06Z" fill="#513684"/>
</svg>
