<svg width="80" height="123" viewBox="0 0 80 123" fill="none" xmlns="http://www.w3.org/2000/svg">
<path d="M40.1196 37.0401C40.3395 34.8405 40.6328 32.7142 41.0727 30.5879L41.4393 30.6612C41.586 30.7345 41.7326 30.5145 41.7326 30.2213C42.3192 27.0685 43.1257 23.989 44.2255 20.9828C44.2989 20.6895 44.2989 20.4696 44.2255 20.3963L42.3192 19.4431C42.2459 19.3698 42.0259 19.5897 41.8793 19.8097C40.1929 22.6692 38.7265 25.7487 37.3334 28.8282C37.1867 29.1214 37.2601 29.3414 37.3334 29.4147L37.7 29.488C36.8201 31.6144 36.0136 33.7407 35.2804 35.867C35.2071 36.1603 35.2071 36.3802 35.3537 36.4535L35.7203 36.5269C34.9871 38.6532 34.3272 40.8528 33.6673 43.0524C33.594 43.3457 33.6673 43.5657 33.814 43.639L34.2539 43.7123C33.594 45.9119 33.0074 48.1115 32.4942 50.3112C32.4209 50.6045 32.4942 50.8244 32.6408 50.8244L33.0808 50.8977C32.5675 53.0974 32.0543 55.297 31.541 57.4966C31.4677 57.7899 31.541 58.0099 31.761 58.0099L32.2009 58.0832C31.761 60.2828 31.2477 62.4824 30.8078 64.7554C30.7345 65.0487 30.8811 65.2686 31.0278 65.2686H31.541C31.1011 67.4683 30.7345 69.7412 30.2946 71.9408C30.2213 72.2341 30.3679 72.4541 30.5879 72.4541H31.1011L30.0013 79.1263C29.928 79.4196 30.0746 79.6395 30.2946 79.6395H30.8811L29.8546 86.385C29.7813 86.6783 29.928 86.8983 30.1479 86.8983H30.7345L29.708 93.6438C29.6347 93.9371 29.8546 94.1571 30.0746 94.1571H30.7345L29.708 100.829C29.6347 101.123 29.8546 101.342 30.0746 101.342H30.7345C30.4412 103.542 30.0746 105.815 29.708 108.015C29.6347 108.308 29.8546 108.528 30.0746 108.528H30.8078C30.4412 110.728 30.0746 112.927 29.6347 115.127C29.5614 115.42 29.7813 115.64 30.0013 115.64H38.8731C39.1664 115.64 39.313 115.42 39.2397 115.127C38.7998 112.854 38.2866 110.581 37.8466 108.381H38.5798C38.8731 108.381 39.0198 108.161 38.9464 107.868C38.4332 105.668 37.9933 103.469 37.48 101.269H38.1399C38.3599 101.269 38.5065 101.049 38.5065 100.756C37.9933 98.5563 37.5533 96.3567 37.1134 94.1571H37.7733C37.9933 94.1571 38.1399 93.9371 38.0666 93.6438C37.6267 91.4442 37.1867 89.2446 36.8201 87.0449H37.4067C37.6267 87.0449 37.7733 86.825 37.7 86.5317C37.3334 84.3321 36.8934 82.1324 36.6002 79.9328H37.1867C37.4067 79.9328 37.5533 79.7128 37.48 79.4196C37.1134 77.2199 36.8201 75.0203 36.5269 72.8207H37.0401C37.2601 72.8207 37.4067 72.6007 37.3334 72.3074C37.0401 70.1078 36.8201 67.9082 36.6002 65.7086H37.1134C37.3334 65.7086 37.4067 65.4886 37.4067 65.1953C37.1867 62.9957 37.0401 60.7961 36.8935 58.5964L37.3334 58.6698C37.48 58.6698 37.6267 58.4498 37.6267 58.1565C37.48 55.9569 37.4067 53.7573 37.4067 51.5576L37.8466 51.631C37.9933 51.631 38.1399 51.411 38.1399 51.191C38.1399 48.9914 38.1399 46.7918 38.2132 44.5922L38.6532 44.6655C38.7998 44.6655 38.9464 44.5188 38.9464 44.2255C39.0198 42.0259 39.1664 39.8263 39.4597 37.7L39.8263 37.7733C39.9729 37.48 40.1196 37.2601 40.1196 37.0401Z" fill="#513684"/>
<path d="M66.0018 121.406C68.8613 121.846 55.9569 122.726 45.692 121.553C36.8201 120.526 31.6143 123.119 25.8953 122.166C14.5306 120.333 10.9379 121.919 11.5977 121.113C15.997 117.227 23.3291 113.294 43.2724 114.394C57.4966 115.2 52.2908 119.5 66.0018 121.406Z" fill="#513684"/>
<path d="M61.236 12.2577C61.0893 12.2577 61.4559 12.8442 61.6759 13.4308C61.9692 14.0174 62.1891 14.5306 62.1158 14.6039C61.016 14.7506 59.9895 15.0439 58.8164 15.1172C58.1565 15.1905 56.91 14.6773 55.7369 14.3106C54.6371 13.944 53.6106 13.5774 53.6839 13.7241C54.1972 14.5306 55.0037 14.9705 55.6636 15.2638C56.2501 15.5571 56.6901 15.6304 56.3968 15.7037C54.7104 16.217 53.1707 16.7302 51.7776 17.2435C51.5576 17.3168 50.8244 17.1702 50.0179 17.1702C49.2113 17.0968 48.4048 17.0235 48.2582 17.1702C48.0382 17.2435 48.4048 17.4634 48.7714 17.7567C49.138 17.9767 49.5046 18.1967 49.2847 18.27C46.7918 19.2232 44.8854 20.0297 43.639 20.5429C42.3192 21.0562 41.6593 21.2028 41.6593 21.2028C41.6593 21.2028 41.7326 20.9095 41.8793 20.323C42.0992 19.7364 42.3925 18.8565 42.9791 17.6834C43.5656 16.5103 44.5188 15.1172 45.9119 13.5774C47.305 12.0377 49.2113 10.278 51.8509 8.73826C52.1442 8.59162 51.4843 9.69144 50.9711 10.7912C50.4578 11.8911 50.0179 12.9909 50.2378 12.8442C50.4578 12.6976 51.411 11.2312 52.5108 9.83808C53.0974 9.17819 53.6839 8.44498 54.1972 7.93173C54.7104 7.41849 55.1503 7.05188 55.297 6.97856C56.1035 6.68528 56.91 6.392 57.7166 6.09871C58.0832 6.02539 57.0567 7.05188 56.1768 8.07838C55.297 9.17819 54.6371 10.278 54.8571 10.1314C55.0037 10.058 56.2502 8.73826 57.6433 7.56513C58.3765 6.97856 59.1097 6.392 59.7696 6.02539C60.4294 5.58547 60.8694 5.3655 61.016 5.3655C61.3093 5.3655 61.5293 5.29218 61.8225 5.29218C63.069 5.14554 64.3155 5.21886 65.4886 5.29218C65.9285 5.3655 64.7554 5.95207 63.8022 6.68528C62.7757 7.41849 61.9692 8.1517 62.2625 8.1517C62.5557 8.1517 64.0222 7.34517 65.7085 6.83192C66.5884 6.53864 67.4682 6.392 68.1281 6.24535C68.8613 6.17203 69.3746 6.09871 69.5212 6.17203C71.2809 6.7586 72.7474 7.63845 73.9205 8.5183C74.2138 8.73826 73.5539 8.8849 72.9673 9.03155C72.3807 9.17819 71.7942 9.39815 72.0141 9.54479C72.2341 9.69143 73.1873 9.76476 74.1404 10.058C75.0936 10.278 76.1201 10.5713 76.2668 10.7912C76.9266 11.5978 77.4399 12.331 77.8065 13.0642C77.9531 13.2842 77.2199 13.1375 76.56 13.0642C75.9001 12.9909 75.2403 12.9176 75.3136 13.1375C75.4602 13.4308 76.4134 13.944 77.2932 14.5306C78.1731 15.1172 78.9796 15.7771 79.0529 16.0704C79.4196 17.4634 79.4196 18.27 79.4196 18.27C79.4196 18.27 78.6863 18.05 77.4399 17.5368C77.2932 17.4634 76.8533 16.5836 76.2668 15.7771C75.7535 14.9705 75.0936 14.164 74.8737 14.0907C74.727 14.0907 75.0936 14.7506 75.3136 15.4105C75.6069 16.0704 75.7535 16.8036 75.6802 16.7302C74.8737 16.437 73.9938 16.0704 72.9673 15.7037C72.8207 15.6304 72.3807 14.6773 71.7209 13.7241C71.1343 12.7709 70.3278 11.8911 70.1078 11.8911C69.8878 11.8911 70.3278 12.6976 70.621 13.5041C70.9143 14.3107 71.061 15.1172 70.9143 15.1172C70.621 15.0439 70.3278 14.9705 70.1078 14.8972C69.9612 14.8972 69.3013 13.8707 68.4214 12.9909C67.6149 12.111 66.5884 11.3778 66.5884 11.5978C66.8084 12.4043 67.3216 13.1375 67.6882 13.6508C68.0548 14.2373 68.3481 14.6039 68.2748 14.6039C67.0283 14.4573 65.7085 14.384 64.1688 14.384C63.9488 14.384 63.3623 13.7974 62.7757 13.2842C62.2625 12.6976 61.5293 12.1843 61.236 12.2577Z" fill="#513684"/>
<path d="M58.3031 18.8562C58.2298 18.7829 58.0099 19.3695 57.7899 19.9561C57.5699 20.5426 57.2766 21.0559 57.2033 21.0559C56.6168 20.6159 56.1035 20.396 55.5903 20.0294C55.4436 19.8827 55.297 19.5895 55.077 19.2228C54.8571 18.8562 54.6371 18.4163 54.3438 17.9764C54.2705 17.9031 54.1972 17.7564 54.1238 17.6831L53.9772 17.5365L53.8306 17.3898C53.7572 17.3165 53.6839 17.2432 53.6106 17.1699C53.5373 17.0965 53.464 17.0232 53.3906 16.9499C53.1707 16.7299 53.024 16.5833 53.024 16.6566C53.0974 17.1699 53.244 17.5365 53.464 17.9031L53.6106 18.1964C53.6839 18.2697 53.6839 18.343 53.7572 18.4163C53.9039 18.563 53.9772 18.7096 54.0505 18.8562C54.3438 19.3695 54.4905 19.5895 54.3438 19.5895L54.1238 19.5161C54.0505 19.5161 54.0505 19.5161 53.9039 19.4428H53.7572C53.6839 19.4428 53.6106 19.4428 53.6106 19.4428H53.3906C53.0974 19.3695 52.7308 19.3695 52.4375 19.2962C51.7776 19.2229 51.1177 19.2229 50.5311 19.1495C50.3845 19.1495 49.7979 18.7096 49.2114 18.4163C48.6248 18.0497 47.9649 17.7564 47.8183 17.7564C47.5983 17.7564 47.8916 18.123 48.1115 18.4163C48.4048 18.7829 48.6248 19.0762 48.4048 19.0762C46.2785 19.0762 44.8121 19.1495 43.8589 19.5161C43.3457 19.6628 42.9791 19.8827 42.7591 20.1027C42.5392 20.2493 42.3925 20.396 42.3925 20.396C42.3925 20.396 42.2459 20.1027 42.1725 19.5161C42.1725 19.2229 42.1725 18.8562 42.3192 18.343C42.4658 17.9031 42.6858 17.3165 43.0524 16.8033C43.7856 15.7035 44.9587 14.5303 46.6451 13.5771C47.4517 13.0639 48.4048 12.624 49.5046 12.2574C50.0179 12.0374 50.6044 11.8908 51.191 11.7441C51.7776 11.5975 52.4375 11.4508 53.1707 11.3775C53.3173 11.3775 53.1707 11.5242 52.8774 11.8174C52.5841 12.1107 52.1442 12.4773 51.7776 12.9173C50.9711 13.7238 50.3112 14.6036 50.6044 14.5303C50.8977 14.457 51.9975 13.5038 53.464 12.624C53.5373 12.5507 53.6106 12.5507 53.6839 12.4773C53.7572 12.404 53.8306 12.404 53.9039 12.3307C54.1238 12.2574 54.2705 12.1107 54.4905 12.0374C54.8571 11.8908 55.297 11.7441 55.6636 11.5975C56.3968 11.3775 56.9834 11.3042 57.13 11.3042C58.0832 11.4508 58.963 11.7441 59.8429 12.1107C60.2095 12.2574 58.6697 12.3307 57.35 12.8439C56.0302 13.2839 54.9304 13.9437 55.2237 14.0171C55.297 14.0171 55.7369 13.8704 56.3968 13.7238C57.0567 13.5771 57.9365 13.4305 58.8897 13.3572C59.8429 13.3572 60.796 13.4305 61.5293 13.5771C62.2625 13.7238 62.7757 13.8704 62.849 13.9437C63.069 14.0904 63.289 14.237 63.4356 14.457C64.3154 15.2635 65.0487 16.0701 65.7085 16.8766C65.9285 17.1699 64.8287 16.8766 63.6556 16.7299C62.5557 16.5833 61.4559 16.5833 61.6759 16.8033C61.7492 16.8766 62.1891 17.0232 62.7024 17.2432C63.289 17.4632 63.9488 17.7564 64.6821 18.123C66.0751 18.8562 67.3949 19.7361 67.4682 19.9561C68.0548 21.2758 68.4214 22.5956 68.6414 23.7687C68.7147 24.062 68.2015 23.8421 67.6149 23.6954C67.1016 23.5488 66.5884 23.4021 66.5884 23.6221C66.5884 23.8421 67.2483 24.3553 67.7615 25.0152C68.3481 25.6018 68.8613 26.2617 68.9347 26.4083C69.008 27.2148 68.9347 27.948 68.9347 28.6079C68.9347 28.8279 68.4214 28.4613 67.9082 28.168C67.3949 27.8014 66.8817 27.5081 66.8817 27.6548C66.8817 27.948 67.3216 28.6812 67.6882 29.4878C68.1281 30.2943 68.4947 31.0275 68.4214 31.2475C68.0548 32.4939 67.7615 33.0805 67.7615 33.0805C67.7615 33.0805 67.2483 32.6406 66.3684 31.834C66.2951 31.7607 66.2218 30.8809 66.2218 30.001C66.1485 29.1212 66.0751 28.2413 65.9285 28.0947C65.8552 28.0214 65.7085 28.6812 65.5619 29.3411C65.4153 30.001 65.2686 30.6609 65.122 30.5143C64.6087 29.9277 64.0222 29.2678 63.3623 28.4613C63.289 28.3146 63.4356 27.3615 63.5822 26.335C63.7289 25.3085 63.7289 24.2087 63.6556 24.1354C63.5089 23.9887 63.2156 24.7952 62.9224 25.6018C62.6291 26.335 62.2625 27.0682 62.1158 26.9215L61.6026 26.2617C61.5293 26.115 61.6759 25.0152 61.7492 23.8421C61.8225 22.7423 61.7492 21.6424 61.6026 21.7891C61.1627 22.449 60.9427 23.2555 60.796 23.9154C60.6494 24.5753 60.5761 25.0152 60.5028 24.9419C59.7696 23.9887 58.963 23.1089 58.0832 22.229C57.9365 22.0824 58.0832 21.4225 58.1565 20.6893C58.5231 19.7361 58.5231 19.0029 58.3031 18.8562Z" fill="#513684"/>
<path d="M55.4437 37.0399C55.3703 36.8932 54.9304 37.3331 54.4172 37.6998C53.9039 38.0664 53.3907 38.433 53.3907 38.3596C53.0241 37.1865 52.5841 36.0134 52.3642 34.8402C52.2908 34.6936 52.2908 34.4736 52.3642 34.1803C52.3642 34.0337 52.3642 33.9604 52.4375 33.8137C52.4375 33.6671 52.4375 33.4471 52.4375 33.3005V33.0072C52.4375 32.9339 52.5108 32.8606 52.5108 32.7872L52.6575 32.4206C52.7308 32.1274 52.8774 31.8341 52.9507 31.6141C53.3173 30.5143 53.5373 29.4878 53.3907 29.6345C52.5841 30.2943 52.2175 31.1009 51.9976 31.6874C51.7776 32.274 51.631 32.6406 51.5576 32.4206C51.0444 30.9542 50.3845 29.5611 49.6513 28.3147C49.578 28.168 49.578 27.3615 49.5047 26.6283C49.4313 25.8218 49.358 25.0886 49.2114 24.8686C49.0647 24.6486 48.9181 25.0886 48.7714 25.4552C48.6248 25.8951 48.4782 26.2617 48.3315 26.1151L46.4252 23.1089C45.8386 22.229 45.3987 21.4958 45.0321 20.9093C44.2989 19.6628 44.0789 19.0029 44.0789 19.0029C44.0789 19.0029 45.3254 19.0029 47.745 19.7361C48.9914 20.1761 50.5312 20.7626 52.2909 21.8624C53.1707 22.449 54.1972 23.1089 55.1504 23.9887C56.1769 24.8686 57.2034 25.9684 58.1565 27.2882C58.3765 27.5815 57.13 26.9949 55.9569 26.555C54.7838 26.1151 53.6106 25.8951 53.8306 26.1151C54.0505 26.335 55.5903 26.9949 57.13 28.0947C57.8632 28.608 58.6698 29.2678 59.183 29.7811L59.403 30.0011C59.4763 30.0744 59.5496 30.1477 59.5496 30.1477C59.6229 30.221 59.6963 30.2943 59.7696 30.2943L59.8429 30.3677H59.9162L59.9895 30.441C60.0629 30.5143 60.0629 30.5876 60.1362 30.5876C60.5028 31.3208 60.8694 32.1274 61.1627 32.8606C61.3093 33.1539 60.2095 32.3473 59.0364 31.6141L58.5964 31.3208L58.3765 31.1742H58.3032L58.2298 31.1009C58.0832 31.0276 58.0099 31.0275 57.8632 30.9542L57.7166 30.8809C57.6433 30.8809 57.57 30.8076 57.57 30.8076C57.13 30.5876 56.9101 30.441 56.9834 30.5876C56.9834 30.6609 57.13 30.7343 57.2767 30.8809L57.4233 31.0276L57.57 31.1742C57.6433 31.2475 57.7899 31.3208 57.9366 31.3942C58.4498 31.8341 59.1097 32.4206 59.7696 33.0805C61.0894 34.327 62.2625 35.7201 62.3358 35.8667L62.5558 36.5266C62.8491 37.6264 63.069 38.6529 63.289 39.6794C63.3623 40.046 62.4825 39.3128 61.6026 38.5796C60.7228 37.8464 59.7696 37.1865 59.8429 37.5531C59.9162 37.7731 60.9427 39.0195 61.8959 40.3393C62.8491 41.6591 63.7289 43.0522 63.8022 43.2721C63.8755 44.8852 63.8755 46.3516 63.7289 47.6714C63.7289 47.9647 63.2157 47.5981 62.7757 47.2315C62.3358 46.8649 61.8959 46.4983 61.8226 46.7182C61.8226 46.9382 62.1892 47.7447 62.5558 48.6246C62.9224 49.5044 63.2157 50.3843 63.2157 50.6042C62.9957 51.5574 62.7024 52.3639 62.4091 53.0971C62.3358 53.3171 61.9692 52.7305 61.6026 52.144C61.236 51.5574 60.8694 51.0441 60.7961 51.1908C60.6494 51.4841 60.8694 52.5106 60.9427 53.6104C61.016 54.6369 61.0894 55.7367 60.9427 55.9566C60.0629 57.2031 59.4763 57.643 59.4763 57.643C59.4763 57.643 59.2563 56.9098 58.8164 55.6634C58.7431 55.5167 59.1097 54.6369 59.403 53.6104C59.6963 52.6572 59.9162 51.6307 59.7696 51.4108C59.6963 51.2641 59.403 51.9973 59.0364 52.6572C58.6698 53.3171 58.3032 53.9037 58.2298 53.8303L57.2767 50.9708C57.2034 50.8242 57.7166 49.7244 58.1565 48.6246C58.5964 47.5247 58.9631 46.3516 58.8897 46.1316C58.8164 45.9117 58.3032 46.7182 57.7166 47.4514C57.2033 48.1846 56.6168 48.8445 56.5435 48.6979L56.2502 47.7447C56.1769 47.5981 56.6901 46.2783 57.13 45.0318C57.57 43.7854 57.8632 42.5389 57.7166 42.6122C57.0567 43.0522 56.5435 43.932 56.2502 44.5919C55.8836 45.2518 55.7369 45.765 55.6636 45.6184C55.2237 44.152 54.7838 42.5389 54.2705 40.7792C54.1972 40.4859 54.6371 39.7527 55.0037 38.9462C55.2237 38.1397 55.5903 37.3331 55.4437 37.0399Z" fill="#513684"/>
<path d="M23.5491 19.7365C23.6224 19.6632 23.1091 19.3699 22.5226 19.0033C21.936 18.71 21.4228 18.4168 21.4961 18.3434C22.5226 17.4636 23.5491 16.5837 24.8688 15.9972C25.2355 15.8505 25.822 15.7772 26.4819 15.8505C27.0685 15.9238 27.7284 16.0705 28.3149 16.2171C29.4881 16.5837 30.2946 17.097 30.2213 16.9503C29.8547 16.0705 29.0481 15.4839 28.3883 15.264C27.7284 14.9707 27.2884 14.9707 27.5817 14.824C28.6082 14.5307 29.5614 14.3108 30.5146 14.1641C30.9545 14.0908 31.4677 14.0908 31.9077 14.0908H32.0543H32.1276H32.2009C32.2009 14.0908 32.2009 14.0908 32.2743 14.0908C32.2743 14.0908 32.2743 14.0908 32.3476 14.0908C32.6409 14.0908 32.8608 14.0908 33.0808 14.0908C33.3741 14.0908 34.1073 14.5307 34.6939 15.044C35.3537 15.5572 35.867 16.0705 36.0136 16.1438C36.2336 16.2171 36.0869 15.7772 35.9403 15.4106C35.7937 14.9707 35.647 14.6041 35.867 14.6774C37.1868 15.1173 38.2133 15.6306 39.0931 16.2171C39.533 16.5104 39.8996 16.8037 40.1929 17.1703C40.4862 17.4636 40.7795 17.8302 40.9261 18.1235C41.2927 18.71 41.366 19.2233 41.366 19.5899C41.366 19.9565 41.2927 20.1031 41.2927 20.1031C41.2927 20.1031 41.1461 19.9565 40.7062 19.8098C40.4862 19.7365 40.1929 19.6632 39.8996 19.6632C39.533 19.6632 39.2397 19.6632 38.7998 19.7365C37.9933 19.8832 36.8935 20.1031 35.5737 20.4697C35.2804 20.5431 34.9138 20.6897 34.6205 20.763C34.3272 20.9097 33.9606 20.983 33.7407 21.1296C33.6674 21.2029 33.7407 21.2029 33.4474 21.2763L33.3007 21.3496H33.2274L33.0808 21.4229C32.9342 21.4962 32.7142 21.5695 32.5675 21.6429C32.2009 21.7895 31.9077 22.0095 31.5411 22.2294C31.3944 22.3028 31.6144 21.4229 32.0543 20.5431C32.4209 19.6632 33.0075 18.8567 32.7875 18.93C32.7142 18.93 32.4209 19.2233 32.0543 19.5899C31.6877 19.9565 31.3211 20.4697 31.0278 21.0563C30.3679 22.1561 30.0746 23.2559 29.928 23.3293C29.5614 23.6225 29.2681 23.8425 28.9015 24.1358C28.7549 24.2824 28.8282 23.2559 28.9748 22.2294C29.1215 21.2029 29.4881 20.1765 29.3414 20.3231C29.2681 20.3231 29.1215 20.6897 28.9015 21.1296C28.6815 21.5696 28.4616 22.2294 28.2416 22.816C27.875 24.0625 27.6551 25.2356 27.5817 25.3822L27.2884 25.6755C26.7752 26.1154 26.3353 26.6287 25.8953 27.0686C25.7487 27.2153 25.6021 26.3354 25.5287 25.3822C25.4554 24.4291 25.3821 23.4759 25.2355 23.6225C25.0888 23.7692 24.7955 24.9423 24.6489 26.1888C24.5023 27.3619 24.4289 28.6084 24.2823 28.755C23.5491 29.4882 22.8159 30.2214 22.0827 30.8813C21.936 31.0279 21.7161 30.588 21.5694 30.0748C21.3494 29.5615 21.2028 29.1216 21.0562 29.2682C20.9095 29.3416 20.8362 30.0748 20.7629 30.808C20.6896 31.5412 20.6162 32.2744 20.4696 32.3477C19.9564 32.7876 19.3698 33.2276 18.9299 33.5208C18.6366 33.7408 18.4899 31.3212 18.1967 31.4679C17.7567 31.7612 17.1702 34.6207 16.8036 34.8406C15.7771 35.4272 15.1172 35.6472 15.1172 35.6472C15.1172 35.6472 14.9705 34.9873 14.8972 33.8141C14.8972 33.5209 17.1702 31.3945 17.2435 31.0279C17.2435 30.808 14.8972 32.3477 14.9705 32.0544C15.0439 31.2479 15.1172 30.3681 15.3371 29.3416C15.3371 29.1949 16.2903 28.6084 17.2435 28.0951C18.1967 27.5819 19.1498 27.0686 19.1498 26.922C19.2232 26.7753 18.3433 26.8487 17.5368 27.0686C16.7302 27.2153 15.8504 27.4352 15.9237 27.2153C15.997 26.922 16.1437 26.6287 16.217 26.3354C16.2903 26.1888 17.4634 25.5289 18.5633 25.0156C19.6631 24.5024 20.7629 24.0625 20.5429 23.9891C19.8097 23.7692 18.8565 23.9158 18.1967 24.0625C17.4634 24.2824 17.0235 24.5024 17.0968 24.3557C17.7567 23.036 18.6366 21.6429 19.8097 20.2498C20.0297 20.0298 20.9095 19.9565 21.7894 19.8832C22.4493 19.8832 23.3291 19.9565 23.5491 19.7365Z" fill="#513684"/>
<path d="M19.5164 7.05173C19.6631 7.05173 19.3698 6.46516 19.0765 5.87859C18.7099 5.29203 18.3433 4.70546 18.5632 4.70546C20.3963 4.55882 22.3026 4.55882 24.0623 5.07207C24.5756 5.21871 25.2354 5.58531 25.822 6.02524C26.4086 6.46516 26.9951 7.05173 27.4351 7.6383C27.875 8.15154 28.2416 8.73811 28.5349 9.10471C28.6082 9.17803 28.6815 9.25135 28.7548 9.398L28.9015 9.54464C28.9748 9.61796 29.0481 9.69128 29.0481 9.61796C29.1948 9.10471 29.1948 8.66479 28.9015 8.15154C28.7548 7.71161 28.5349 7.34501 28.3149 6.97841C27.875 6.31852 27.4351 5.95191 27.8017 6.09856C28.0949 6.2452 28.3882 6.31852 28.6815 6.46516L29.1214 6.68512L29.3414 6.75844L29.488 6.83176L29.6347 6.90509L29.7813 6.97841L29.8547 7.05173L30.0746 7.12505L30.4412 7.34501C30.7345 7.49165 30.9545 7.63829 31.1744 7.78494C32.1276 8.3715 33.0075 8.95807 33.814 9.54464C34.0339 9.69128 34.4739 10.4978 34.8405 11.3777C35.2071 12.1842 35.5737 13.064 35.7203 13.2107C35.9403 13.4306 36.0136 12.9907 36.0136 12.5508C36.0869 12.1109 36.0869 11.5976 36.3069 11.8176C37.5533 13.064 38.4332 14.2372 39.0931 15.4103C39.753 16.5834 40.1196 17.6833 40.1929 18.5631C40.2662 19.443 40.1196 20.1028 39.9729 20.4694C39.8263 20.8361 39.6797 20.9827 39.6797 20.9827C39.6797 20.9827 39.533 20.6894 39.2397 20.1762C38.8731 19.6629 38.2866 19.0764 37.2601 18.4898C36.2336 17.9032 34.9138 17.2433 33.0808 16.5834C32.2009 16.2168 31.1744 15.8502 30.0746 15.4836C29.488 15.2637 28.9748 15.117 28.3149 14.8971C28.0216 14.8237 27.7283 14.7504 27.4351 14.6038L26.9951 14.4571L26.7752 14.3838H26.7019C26.6285 14.3838 26.6285 14.3105 26.7019 14.3105C26.7019 14.3105 26.7752 14.3105 26.7752 14.2372C26.7752 14.2372 26.7752 14.1639 26.8485 14.1639C26.8485 14.1639 26.8485 14.0905 26.9218 14.0905C26.9218 14.0905 26.9951 14.0172 27.0685 14.0172C27.4351 13.8706 27.9483 13.7239 28.5349 13.5773C29.708 13.284 30.8811 13.064 30.5879 12.9174C30.4412 12.8441 29.928 12.8441 29.2681 12.8441C28.9015 12.8441 28.5349 12.8441 28.1683 12.9174C27.9483 12.9174 27.8017 12.9907 27.5817 12.9907H27.4351C27.3617 12.9907 27.3617 12.9907 27.3617 13.064C27.3617 13.064 27.2884 13.064 27.2151 13.064H27.0685C26.2619 13.2107 25.4554 13.4306 24.8688 13.5773C24.2823 13.7239 23.8423 13.8706 23.6957 13.8706C23.0358 13.7972 22.3759 13.7972 21.716 13.7972C21.4228 13.7972 22.3759 13.064 23.4757 12.4775C24.5756 11.8909 25.822 11.3777 25.5287 11.3043C25.4554 11.3043 24.9422 11.3777 24.3556 11.5243C23.6957 11.6709 22.8892 11.9642 22.156 12.3308C21.4228 12.6974 20.6895 13.064 20.1763 13.3573C19.6631 13.6506 19.2964 13.8706 19.2231 13.8706C19.0032 13.8706 18.8565 13.9439 18.6366 13.9439C17.7567 14.0172 16.9502 14.1639 16.1437 14.3838C15.8504 14.4571 16.3636 13.5773 17.0235 12.6974C17.6834 11.8176 18.4899 11.0844 18.1233 11.0844C17.9767 11.0844 17.6101 11.3043 17.0968 11.6709C16.5836 12.0375 15.997 12.4775 15.4104 12.9907C14.3106 14.0172 13.4308 15.117 13.2108 15.1903C11.9644 15.6303 10.7912 16.0702 9.69141 16.5101C9.47145 16.5834 9.47146 16.0702 9.6181 15.4836C9.69142 14.8971 9.83806 14.3838 9.54477 14.4571C9.32481 14.5305 8.81157 15.2637 8.29832 15.9969C7.78507 16.7301 7.41847 17.5366 7.19851 17.6099C6.39198 17.9765 5.65877 18.3431 4.99888 18.7097C4.77892 18.8564 4.85224 18.1965 4.99888 17.5366C5.14552 16.8767 5.29216 16.2168 5.07219 16.2902C4.77891 16.4368 4.04571 17.3167 3.53246 18.2698C2.9459 19.223 2.43265 20.1028 2.21269 20.2495C0.892909 20.9827 0.159698 21.276 0.159698 21.276C0.159698 21.276 0.159698 20.4694 0.526303 19.003C0.599624 18.7831 1.40615 18.0499 2.35932 17.3167C3.23918 16.5834 4.19234 15.9236 4.33899 15.7036C4.41231 15.557 3.60578 15.8502 2.79925 16.2168C1.99272 16.5834 1.18619 16.95 1.25951 16.8034C1.62612 15.8502 2.21269 14.6771 3.01922 13.4306C3.16586 13.2107 4.48563 12.6974 5.87873 12.3308C7.27183 11.9642 8.66492 11.6709 8.81156 11.5243C9.03153 11.3777 8.00503 11.231 6.90522 11.1577C5.87872 11.0844 4.77892 11.1577 4.99888 10.9377C5.29216 10.6445 5.58545 10.2778 5.95205 9.98456C6.17202 9.83792 7.85839 9.39799 9.54477 9.25135C11.1578 9.10471 12.6976 9.17803 12.4776 9.03139C11.891 8.44482 10.7179 8.22486 9.76474 8.22486C8.81157 8.15154 8.07836 8.29818 8.29832 8.15154C10.058 6.97841 12.2576 5.87859 14.8239 5.2187C15.2638 5.14538 16.2903 5.51199 17.2435 5.95191C18.1966 6.53848 19.0765 7.05173 19.5164 7.05173Z" fill="#513684"/>
<path d="M21.2028 6.46521C21.3494 6.31857 20.6896 6.0986 20.0297 5.95196C19.3698 5.732 18.7099 5.58536 18.8565 5.43872C19.5897 4.70551 20.3963 3.9723 21.2761 3.31241C22.156 2.65252 23.1825 2.06596 24.2823 1.55271C24.9422 1.25943 25.822 1.18611 26.7752 1.18611C27.7284 1.18611 28.6815 1.40607 29.5614 1.69935C30.3679 1.99264 31.1011 2.35924 31.541 2.5792C31.981 2.87249 32.2742 3.01913 32.2009 2.87249C32.1276 2.35924 31.9076 1.91931 31.541 1.55271C31.1744 1.18611 30.7345 0.892824 30.2946 0.672861C29.4147 0.232936 28.6815 0.159613 29.1948 0.0862921C31.0278 -0.133671 32.7142 0.0862938 34.2539 0.526219C34.9871 0.746182 35.647 0.966144 36.3802 1.25943C37.0401 1.55271 37.7 1.91931 38.2132 2.28592C38.5065 2.50588 39.2397 3.45905 39.753 4.48554C40.2662 5.51204 40.5595 6.46521 40.7061 6.75849C40.9261 7.05178 41.0728 6.61185 41.1461 6.0986C41.2194 5.58536 41.2927 5.14543 41.5127 5.43872C42.8325 7.19842 43.4923 8.95812 43.7856 10.4979C44.0789 12.0376 44.0056 13.2107 43.8589 14.1639C43.7123 15.1171 43.4923 15.777 43.2724 16.1436C43.0524 16.5835 42.9791 16.7301 42.9791 16.7301C42.9791 16.7301 42.8325 16.3635 42.5392 15.7036C42.2459 15.0438 41.806 14.0906 40.9994 12.9174C40.1929 11.8176 39.0198 10.4979 37.4067 9.54469C36.6002 9.03144 35.647 8.59152 34.6205 8.37155C34.4005 8.29823 34.1073 8.22491 33.8873 8.22491C33.6673 8.22491 33.3741 8.15159 33.0808 8.15159C32.4942 8.07827 31.981 8.15159 31.3944 8.22491C31.3211 8.22491 31.3944 8.07827 31.6877 7.78498C31.981 7.4917 32.4209 7.19842 32.9341 6.90514C33.4474 6.61185 34.0339 6.39189 34.4005 6.24525C34.7672 6.0986 35.0604 6.02528 34.9138 5.95196C34.8405 5.95196 34.6938 5.95196 34.4005 5.95196C34.1806 5.95196 33.814 6.02528 33.5207 6.0986C32.7875 6.24525 31.981 6.53853 31.3211 6.97846C29.928 7.78498 29.1214 9.03144 28.9748 9.10476C28.4616 9.39804 27.875 9.76465 27.3617 10.1313C27.1418 10.2779 27.4351 9.10476 28.0216 8.00495C28.3149 7.41838 28.6815 6.90514 28.9748 6.53853C29.2681 6.17193 29.4147 5.95196 29.2681 5.95196C29.1948 5.95196 28.7548 6.31857 28.2416 6.75849C27.7284 7.27174 27.2151 7.93163 26.7752 8.73816C25.8953 10.2046 25.3821 11.891 25.2354 12.0376C25.0888 12.1842 24.9422 12.4042 24.7955 12.5508C24.0623 13.3574 23.4024 14.1639 22.7425 15.0438C22.5226 15.337 22.5226 14.1639 22.5226 12.9174C22.5959 11.671 22.7425 10.4979 22.5226 10.7178C22.4492 10.7911 22.2293 11.3044 21.936 11.9643C21.716 12.6242 21.4228 13.504 21.2761 14.3839C20.8362 16.1436 20.6162 17.9033 20.3963 18.1232L17.5367 22.1559C17.3168 22.4492 17.1701 21.7893 17.0235 21.2027C16.8769 20.6161 16.7302 19.9562 16.5103 20.1762C16.3636 20.3962 16.1437 21.496 15.997 22.5958C15.8504 23.6956 15.7037 24.7954 15.5571 24.9421C14.8972 25.8219 14.3106 26.6285 13.7241 27.3617C13.3575 27.8016 13.4308 24.2822 13.0642 24.6488C12.7709 24.9421 12.4043 26.1885 12.111 27.5083C11.8177 28.7548 11.4511 30.0012 11.2312 30.2212C10.058 31.4676 9.32481 32.0542 9.32481 32.0542C9.32481 32.0542 9.2515 31.1743 9.2515 29.488C9.2515 29.268 9.91138 28.1682 10.6446 26.9951C11.3045 25.8952 12.0377 24.7221 12.0377 24.5021C12.0377 24.3555 11.3778 25.0154 10.7179 25.7486C10.058 26.4818 9.39813 27.1417 9.39813 26.9951C9.54478 25.8219 9.69142 24.5021 9.9847 22.8891C10.058 22.6691 11.0845 21.496 12.1843 20.3962C13.2841 19.2964 14.384 18.1965 14.5306 17.9766C14.6039 17.6833 13.6507 18.2699 12.6242 18.7831C11.6711 19.3697 10.7179 19.9562 10.7912 19.5896C10.9379 19.1497 11.0845 18.7098 11.2312 18.1966C11.3045 17.9033 12.6976 16.6568 14.0174 15.4837C15.3371 14.3105 16.6569 13.284 16.4369 13.284C15.5571 13.2107 14.4573 13.7973 13.6507 14.3839C12.8442 14.9704 12.2576 15.4837 12.331 15.2637C13.2108 13.2107 14.3839 10.9378 16.0703 8.59151C16.3636 8.22491 17.4634 7.78498 18.5632 7.41838C19.7364 7.1251 20.8362 6.83181 21.2028 6.46521Z" fill="#513684"/>
<path d="M26.2619 31.8343C26.3353 31.6877 25.6754 31.6144 25.0888 31.4677C24.4289 31.3944 23.8424 31.3211 23.9157 31.1744C24.6489 29.928 25.4554 28.6815 26.4819 27.655C27.0685 27.0685 28.5349 26.6285 29.7813 26.4086C31.0278 26.1886 32.0543 26.1886 31.9076 26.1153C31.1011 25.5287 30.1479 25.4554 29.4881 25.5287C28.7548 25.602 28.3149 25.7487 28.5349 25.5287C30.0746 24.0623 31.6144 22.9625 33.0075 22.0826C33.2274 21.936 34.0339 21.936 34.8405 21.8627C35.647 21.8627 36.4535 21.8627 36.6735 21.7894C36.8935 21.6427 36.5269 21.4961 36.1603 21.2761C35.7937 21.0561 35.3537 20.9095 35.5737 20.7629C38.1399 19.5897 40.1929 19.1498 41.586 19.0032C42.9791 18.8565 43.639 19.0032 43.639 19.0032C43.639 19.0032 43.4923 19.2964 43.1991 19.7364C42.9058 20.2496 42.3925 20.9095 41.7326 21.8627C41.0727 22.8158 40.1929 23.9157 39.1664 25.3088C38.1399 26.7019 36.8935 28.3149 35.5737 30.1479C35.427 30.3679 35.427 29.2681 35.427 28.1683C35.427 27.0685 35.5737 25.9686 35.3537 26.1886C35.2071 26.4086 34.7672 27.875 34.4739 29.3414C34.1806 30.8078 34.034 32.2742 33.9606 32.4942C33.594 33.0074 33.3007 33.5207 33.0075 34.0339C32.8608 34.2539 32.7142 33.1541 32.6409 31.981C32.5675 30.8078 32.5675 29.5614 32.4209 29.7813C32.3476 29.928 32.0543 31.4677 31.981 32.9341C31.8343 34.4739 31.9076 35.867 31.9076 36.0136L31.6877 36.4535C31.3211 37.1867 30.9545 37.8466 30.5879 38.5065C30.4412 38.7265 30.0746 37.8466 29.7813 36.8935C29.4881 35.9403 29.1948 34.9138 29.0481 35.1338C28.9015 35.2804 28.9015 36.7468 29.0481 38.0666C29.1948 39.3864 29.5614 40.5595 29.4881 40.7795C29.0481 41.8059 28.6815 42.6858 28.3882 43.5657C28.3149 43.7856 27.9483 43.4923 27.5084 43.1257C27.1418 42.7591 26.7752 42.3925 26.7019 42.6125C26.6285 42.7591 26.8485 43.4923 27.1418 44.2255C27.4351 44.8854 27.8017 45.5453 27.8017 45.6186C27.655 46.2785 27.5084 46.9384 27.3618 47.525C27.3618 47.7449 26.8485 47.3783 26.4086 47.0117C25.9687 46.6451 25.5287 46.2052 25.4554 46.3518C25.3821 46.6451 25.6754 47.525 26.1153 48.3315C26.5552 49.138 26.9951 49.8712 26.9951 50.0912C26.8485 51.3377 26.8485 52.0709 26.8485 52.0709C26.8485 52.0709 26.1886 51.8509 25.0888 50.9711C24.9422 50.8977 24.7222 49.8712 24.6489 48.8448C24.5756 47.8183 24.5756 46.8651 24.5022 46.6451C24.4289 46.4985 24.2089 47.2317 23.989 48.0382C23.8423 48.7714 23.6957 49.578 23.6224 49.5046C23.0358 48.7714 22.3759 47.7449 21.936 46.4985C21.8627 46.2785 22.2293 44.9588 22.8159 43.8589C23.3291 42.6858 24.0623 41.6593 24.0623 41.4393C24.0623 41.2194 23.3291 41.806 22.5959 42.4658C21.936 43.1257 21.2761 43.9323 21.2028 43.639C21.1295 43.2724 21.1295 42.8324 21.0562 42.3925C21.0562 42.2459 21.2028 41.8793 21.5694 41.2927C21.8627 40.7795 22.3026 40.1196 22.7425 39.533C23.6224 38.3599 24.5756 37.48 24.3556 37.48C23.5491 37.5533 22.6692 38.1399 22.0827 38.7265C21.4961 39.313 21.1295 39.8263 21.1295 39.6796C21.2761 37.8466 21.7894 35.7936 22.6692 33.814C22.8159 33.5207 23.6957 33.0808 24.5756 32.7142C25.2354 32.4209 26.1153 32.1276 26.2619 31.8343Z" fill="#513684"/>
<path d="M44.5921 18.1964C44.5921 19.8095 43.2724 21.0559 41.7326 21.0559C40.1196 21.0559 38.8731 19.7362 38.8731 18.1964C38.8731 16.5834 40.1929 15.3369 41.7326 15.3369C43.2724 15.3369 44.5921 16.5834 44.5921 18.1964Z" fill="#513684"/>
<path d="M48.2582 22.8161C48.2582 24.4291 46.9384 25.6756 45.3987 25.6756C43.7856 25.6756 42.5392 24.3558 42.5392 22.8161C42.5392 21.203 43.859 19.9565 45.3987 19.9565C47.0118 19.9565 48.2582 21.203 48.2582 22.8161Z" fill="#513684"/>
<path d="M46.9384 27.2885C46.9384 29.0482 45.5453 30.4413 43.7856 30.4413C42.0259 30.4413 40.6328 29.0482 40.6328 27.2885C40.6328 25.5288 42.0259 24.1357 43.7856 24.1357C45.5453 24.1357 46.9384 25.5288 46.9384 27.2885Z" fill="#513684"/>
<path d="M50.6778 112.927C50.6778 114.833 49.2847 116.3 47.525 116.3C45.7653 116.3 44.3722 114.76 44.3722 112.927C44.3722 111.021 45.7653 109.554 47.525 109.554C49.2114 109.481 50.6778 111.021 50.6778 112.927Z" fill="#513684"/>
<path d="M44.1522 31.3942C44.1522 33.0072 42.8324 34.2537 41.2927 34.2537C39.6796 34.2537 38.4332 32.9339 38.4332 31.3942C38.4332 29.7811 39.7529 28.5347 41.2927 28.5347C42.9057 28.4613 44.1522 29.7811 44.1522 31.3942Z" fill="#513684"/>
<path d="M39.8996 27.5817C39.8996 29.1947 38.5798 30.4412 37.0401 30.4412C35.5003 30.4412 34.1806 29.1214 34.1806 27.5817C34.1806 25.9686 35.5003 24.7222 37.0401 24.7222C38.5798 24.7222 39.8996 26.0419 39.8996 27.5817Z" fill="#513684"/>
<path d="M41.7326 23.9889C41.7326 25.6019 40.4129 26.8484 38.8731 26.8484C37.2601 26.8484 36.0136 25.5286 36.0136 23.9889C36.0136 22.3758 37.3334 21.1294 38.8731 21.1294C40.4129 21.0561 41.7326 22.3758 41.7326 23.9889Z" fill="#513684"/>
<path d="M41.366 21.3493C41.366 22.9623 40.0463 24.2088 38.5065 24.2088C36.8935 24.2088 35.647 22.889 35.647 21.3493C35.647 19.7362 36.9668 18.4897 38.5065 18.4897C40.1196 18.4897 41.366 19.7362 41.366 21.3493Z" fill="#513684"/>
<path d="M24.5022 111.168C22.8158 110.581 21.2761 110.361 20.1763 110.141C19.0765 109.921 18.4166 109.774 18.4166 109.774C18.4166 109.774 19.0765 109.628 20.1763 109.555C20.7629 109.481 21.4227 109.481 22.2293 109.555C23.0358 109.628 23.9157 109.774 24.8688 110.068C25.4554 110.288 26.1153 110.581 26.7752 110.948C27.3617 111.314 27.9483 111.754 28.4616 112.194C29.488 113.147 30.0746 114.247 30.4412 114.98C30.2213 115.274 30.0013 115.347 30.0013 115.347C30.0013 115.347 29.5614 114.614 28.6082 113.66C28.1683 113.221 27.5817 112.707 26.8485 112.267C26.1886 111.827 25.3821 111.461 24.5022 111.168Z" fill="#513684"/>
<path d="M26.9218 110.214C26.5552 108.895 26.5552 107.721 26.6285 106.915C26.7018 106.108 26.8485 105.668 26.8485 105.668C26.8485 105.668 26.9951 106.108 27.2151 106.915C27.4351 107.648 27.7283 108.748 28.0949 109.994C28.3149 110.801 28.6082 111.754 28.9015 112.561C29.1947 113.367 29.5614 114.1 29.8546 114.54C29.708 114.834 29.4147 114.98 29.4147 114.98C29.4147 114.98 28.9015 114.54 28.3882 113.66C27.8017 112.781 27.2884 111.534 26.9218 110.214Z" fill="#513684"/>
<path d="M24.3556 113.22C23.1825 113.074 22.156 113 21.4228 113.074C20.6896 113.147 20.2496 113.367 20.2496 113.367C20.2496 113.367 20.3229 113.294 20.4696 113.074C20.6162 112.927 20.8362 112.707 21.2028 112.487C21.936 112.047 23.1825 111.827 24.5022 112.047C25.3821 112.194 26.4086 112.487 27.2151 112.927C28.095 113.367 28.7548 113.954 29.1215 114.467C28.9748 114.76 28.6815 114.907 28.6815 114.907C28.6815 114.907 28.2416 114.54 27.5084 114.1C26.7019 113.734 25.5287 113.44 24.3556 113.22Z" fill="#513684"/>
<path d="M39.2397 112.341C39.6063 111.827 39.9729 111.461 40.2662 111.167C40.5595 110.874 40.7795 110.728 40.7795 110.728C40.7795 110.728 40.8528 111.021 40.7795 111.387C40.7061 111.827 40.5595 112.414 40.1929 112.927C39.9729 113.294 39.6063 113.66 39.3131 114.027L38.5798 114.907C38.2866 114.834 38.0666 114.687 38.0666 114.687C38.0666 114.687 38.1399 114.394 38.2866 113.88C38.5798 113.44 38.8731 112.854 39.2397 112.341Z" fill="#513684"/>
</svg>
